<svg xmlns="http://www.w3.org/2000/svg" viewBox="0 0 258.5 258.5"><path d="M227.6 144.7c17.1 0 30.9-6 30.9-13.4s-13.8-13.4-30.9-13.4h-.7c-.5-4.2-1.2-8.4-2.2-12.4 6.6-4.9 10.2-10.3 8.6-14.3-1.6-3.8-7.6-5.3-15.3-4.4-2.6-5.4-5.6-10.5-9.1-15.3l.9-.9c12.1-12.1 17.6-26.1 12.4-31.3-5.2-5.2-19.3.3-31.3 12.4l-.5.5c-3.7-3-7.7-5.7-11.9-8.1.9-7.5-.5-13.3-4.2-14.9-3.6-1.5-8.6 1.3-13.3 6.9-5.2-1.8-10.6-3.1-16.2-4v-1.2c0-17.1-6-30.9-13.4-30.9S118 13.8 118 30.9v.7c-5.4.6-10.7 1.7-15.8 3.1-4.6-5.9-9.7-9-13.5-7.5-3.7 1.5-5.2 7.2-4.5 14.7-4.4 2.3-8.6 4.9-12.6 7.8l-.9-.9C58.6 36.7 44.5 31.2 39.3 36.4c-5.2 5.2.3 19.3 12.4 31.3l.5.5c-3.5 4.4-6.6 9.1-9.3 14.1-8.1-1.3-14.5.1-16.2 4.1-1.7 4 1.8 9.5 8.4 14.5-1.3 4.2-2.3 8.6-3 13h-1.2c-17.1 0-30.9 6-30.9 13.4s13.8 13.4 30.9 13.4h.7c.6 5.5 1.7 10.8 3.2 15.9-7.6 5.1-11.8 11.1-10.1 15.4 1.7 4.3 9 5.6 18 4 2.1 3.9 4.4 7.6 7 11.1l-.9.9c-12.1 12-17.6 26-12.4 31.2 5.2 5.2 19.3-.3 31.3-12.4l.5-.5c3.8 3 7.8 5.8 12.1 8.2-2.1 9.6-1 17.4 3.5 19.3 4.4 1.9 10.8-2.7 16.1-10.7 4.5 1.4 9.2 2.5 13.9 3.3v1.2c0 17.1 6 30.9 13.4 30.9s13.4-13.8 13.4-30.9v-.7c4.3-.5 8.5-1.3 12.6-2.3 5.2 8.3 11.6 13 16.1 11.2 4.4-1.8 5.7-9.3 3.9-18.6 4.8-2.4 9.4-5.2 13.8-8.4l.9.9c12.1 12.1 26.1 17.6 31.3 12.4 5.2-5.2-.3-19.3-12.4-31.3l-.5-.5c2.5-3.1 4.8-6.4 6.9-9.8 9 1.8 16.3.5 18.1-3.7 1.7-4.1-2.1-9.9-9.2-15 1.9-5.5 3.4-11.2 4.3-17 .4-.1.8-.1 1.2-.1z" fill="#ffaa98"/><circle cx="91.3" cy="66.3" r="6.9" fill="#f89283"/><circle cx="177.5" cy="84.1" r="11" fill="#f89283"/><circle cx="78.3" cy="167.9" r="17.5" fill="#f89283"/><circle cx="171.8" cy="195.5" r="5.3" fill="#f89283"/><circle cx="55.9" cy="108.9" r="4.9" fill="#f89283"/><circle cx="151.6" cy="59.1" r="7.1" fill="#f89283"/><circle cx="130.7" cy="99.2" r="9.8" fill="#f89283"/><circle cx="94.7" cy="209.1" r="3.5" fill="#f89283"/><circle cx="207.1" cy="165.9" r="6.5" fill="#f89283"/><circle cx="214.4" cy="116.3" r="7.3" fill="#f89283"/><circle cx="83.3" cy="118.9" r="5.1" fill="#f89283"/><circle cx="151" cy="162.6" r="3.3" fill="#f89283"/><circle cx="182.9" cy="138.3" r="11.2" fill="#f89283"/><circle cx="130" cy="133.8" r="4.5" fill="#f89283"/><circle cx="126" cy="190.4" r="5.1" fill="#f89283"/><path d="M97.1 90.8c-7 0-12.7 5.7-12.7 12.7 0 7 5.7 12.7 12.7 12.7 7 0 12.7-5.7 12.7-12.7 0-7-5.7-12.7-12.7-12.7zm-2.9 11.9c-1.6 0-2.9-1.3-2.9-2.9 0-1.6 1.3-2.9 2.9-2.9 1.6 0 2.9 1.3 2.9 2.9 0 1.6-1.3 2.9-2.9 2.9z" fill="#333"/><circle cx="94.2" cy="99.8" r="2.9" fill="#fff"/><g><path d="M164.1 91.8c-7 0-12.7 5.7-12.7 12.7 0 7 5.7 12.7 12.7 12.7 7 0 12.7-5.7 12.7-12.7 0-7-5.7-12.7-12.7-12.7zm-2.9 11.9c-1.6 0-2.9-1.3-2.9-2.9 0-1.6 1.3-2.9 2.9-2.9 1.6 0 2.9 1.3 2.9 2.9 0 1.6-1.3 2.9-2.9 2.9z" fill="#333"/><circle cx="161.2" cy="100.8" r="2.9" fill="#fff"/></g><path d="M98.2 85.8s12.4 5.3 15.1 11.2M164.3 86.8s-12.4 5.3-15.1 11.2" fill="none" stroke="#333" stroke-width="3" stroke-linecap="round" stroke-miterlimit="10"/><path d="M107.9 140.2s27.6-11 48.8 0" fill="none" stroke="#333" stroke-width="5" stroke-linecap="round" stroke-miterlimit="10"/></svg>