<svg xmlns="http://www.w3.org/2000/svg" viewBox="0 0 155 155"><path d="M118.1 14.6c0 .1.2.2.4.3.6.1.8.4.7.7-.1.2-.1.3.1.5.1.1.3.3.3.4 0 .1.1.2.2.2s.4.1.7.3c.7.4 1.4.4 1.3.1-.1-.1-.2-.2-.4-.2s-.4-.1-.4-.1c0-.1-.1-.1-.2-.1-.3 0-.3-.4 0-.6.2-.1.4-.1.6 0 .2.1.6.2 1 .4.4.1.6.1.8.1-.6-.5-1.3-1-2-1.5-.5-.1-1.1-.2-2-.4-.9-.2-1.2-.2-1.1-.1zM137.8 56.7c-.1 0-.3 0-.4-.1-.2-.1-.4-.1-.8.4-.1.1-.3.2-.4.2-.2 0-.2 0 0 .1.1.1.2.1.3 0 .1-.1.1-.1 0 .1-.1.3.4 1.6.6 1.6.1 0 .1.1.1.2 0 0 0 .1.1.1l.9-2.5c-.2-.1-.3-.2-.4-.1zM115 11.2h-.1.1zM99.6 18.5c-.1 0-.2 0 0 0 0 .1.1.1.2.1 0-.1 0-.2-.2-.1zM113.2 10.3c0 .1.2.1.3 0-.1 0-.2-.1-.2-.1-.1 0-.2 0-.1.1zM101.6 17.1c-.2.2-.3.3-.2.3.1 0 0 .1-.1.2s-.1.2 0 .2c.2 0 .8-.6.8-.8 0-.3-.2-.3-.5.1zM106.3 46.4c0-.1.1-.3.1-.3.1 0 .1-.3-.1-.7-.2-.5-.3-.7-.6-.8-.1 0-.1-.1-.2-.1 0 .8-.2 1.6-.4 2.3.7 0 1.2-.2 1.2-.4zM127.9 65.1c0-.1-.1-.4-.3-.6-.1-.2-.2-.4-.2-.5 0-.1 0-.1-.1-.1-.1.1-.2 0-.2-.1s-.1-.2-.2-.2c-.2 0-.6-.7-.5-.9.1-.1-.2-.8-.5-1.1-.1-.2-.3-.5-.5-.8s-.4-.7-.5-.8c-.1-.2-.2-.3-.2-.4 0-.1-.1-.1-.1-.1-.1 0-.1-.1-.1-.2s-.1-.2-.2-.2-.3.1-.4.2c-.1.1-.2.2-.3.2-.2 0-1.1-1.1-1.1-1.3 0-.1-.1-.3-.2-.5-.2-.2-.4-.8-.5-1.3.1.5.1.9.2.9.1.1.1.2.1.4s.2.6.4.9c.2.3.5.7.5.8 0 .1.1.4.3.6.1.2.2.4.2.5s.1.4.3.7c.2.3.4.9.6 1.3.2.4.5 1 .7 1.1.2.2.3.3.1.3-.2 0-.2.3-.1.6 1 .3 2 .6 2.9.9 0-.1 0-.2-.1-.3.1.2 0 .1 0 0zM38.6 37.3c.2 0 .3 0 .3-.1s-.4-.2-.4-.1c-.1.1 0 .2.1.2z" fill="#93cfd8"/><path d="M105.3 42.1c.2.2.4.3.7.3h.6c.1 0 0 .1 0 .3-.1.2 0 .3.7.7 1.1.6 1.5 1 1.3 1.4-.1.3-.1.3-.3.1-.1-.1-.2-.3-.3-.3 0-.1-.2-.2-.4-.2-.3 0-.4 0-.5.3-.1.3-.1.4.2.6.4.2.4.8.1.9-.1 0-.3.2-.3.3 0 .4-.6.9-.9.8-.2-.1-.3 0-.3.3v.6c.1.4-.1.7-.5.7-.2-.1-.3-.2-.4-.3l-.2-.2h-.1c-.6 1.1-1.5 2-2.5 2.6 0 .1 0 .1.1.1s.1 0 .1.1-.1.1-.2.1-.4.1-.6.3c-.3.3-.4.4-.3.6.1.3.5.4.5.1 0-.1.1-.1.2-.1s.2 0 .1.1c-.2.2.2.6.7.9.3.2.8.3 1.2.2.4 0 .8.1 1 .2.2.1.5.3.7.4.2.1.4.3.4.6.1.5.5.8.9.8.5 0 1.3.3 1.8.7.3.2.6.4.7.4.5 0 1-.8.8-1.1-.2-.4-.1-1.1.3-1.4.6-.5 1.8-.8 1.9-.5 0 .1.2.1.3.1.1 0 .3.1.3.3.1.3.7.6 1.4.6.3 0 .4.1.5.3.1.2.2.3.4.2.3-.1 1.2.1 1.6.3.1.1.5.2.8.3.3.1.7.2.8.2.2 0 .4 0 .5-.2.6-.6 2-.7 2.4-.3.1.1.1.4.2.8V56c0-.4.1-.4.4-.5.2 0 .5-.1.7-.1.5 0 .7-.4.9-1.2.2-.8.6-2.4.8-2.6.1-.1 0-1.1-.2-1.2-.1-.1-.1-.3 0-.4.1-.2.1-.4 0-.4-.1-.1-.1-.2.1-.4.3-.3.1-.5-.2-.2-.2.2-.3.2-.5.1-.4-.2-.6-.2-.8.2-.3.5-1.4.6-1.7.2-.6-.6-1.6-1-1.5-.6.1.5 0 .6-.5.6-.4 0-.6 0-.8-.2-.3-.3-.9-.5-.9-.3 0 .1-.1.2-.2.2s-.2-.1-.2-.1c0-.1-.1-.1-.2-.1-.1.1-.2 0-.2-.1s.1-.2.2-.2c.2 0 .2-.1 0-.1-.6 0-.6 0-.4-.2.1-.1.2-.2.1-.2s-.2-.2-.3-.4c-.1-.2-.1-.3 0-.3s0-.1-.3-.2-.4-.3-.5-.5c0-.3.3-.4.4-.1 0 .1.1.1 0-.1 0-.2-.1-.3-.1-.4-.1-.1-.1-.2-.1-.4 0-.1 0-.2-.1-.2-.4 0-.5 0-.5-.4 0-.2-.1-.3-.2-.3s-.2-.1-.2-.2.1-.1.2-.1.2 0 .2-.1.6-.1 1.2-.2c1.2 0 1.6-.2 1.3-.6-.3-.3.1-.5 1-.4.7.1.9.1 1-.1.4-.5 1.1-.8 2.1-.9.9-.1 1-.1 1.2.2.1.2.3.2.5.2.2-.1.3 0 .4.2.1.2.2.3.4.2.1 0 .3 0 .3.1s.2.1.5.1c.2 0 .4.1.4.1s.5.1 1.2.1c1.7-.1 2.3-.5 1.9-1.5-.2-.4-.4-.6-.9-.9-.4-.2-.8-.5-1-.7l-.3-.3.3-.1c-.3.1-.4.1-.6-.1-.1-.1-.3-.2-.4-.2-.1 0-.3-.1-.4-.2-.1-.1-.3-.2-.4-.2-.1 0-.3-.1-.4-.2-.6-.6-.6-.6-.6-.4 0 .1-.1.2-.4.2-.2 0-.5.1-.5.1 0 .1-.2.1-.4.1s-.4.1-.4.2c-.1.1-.2.2-.5.2s-.4-.1-.3-.4c0-.3 0-.4-.3-.5-.3-.1-.5-.2-.7-.2-.2 0 .4-.6.5-.6.1 0 .2-.1.2-.1s-.1-.1-.3-.1c-.7 0-1.3-.2-1.3-.4 0-.1-.1-.2-.3-.2-.2 0-.3.1-.3.2s-.2.4-.4.6c-.2.2-.4.6-.4.8 0 .2-.1.4-.3.5-.3.2-.4.3-.4.9 0 .5-.1.7-.3.7-.1 0-.2.2-.2.4s-.1.4-.1.4c-.2.2.4 1.3.7 1.5.4.2.4.2.3.4-.1.1-.3.2-.6.2s-.5.1-.7.3c-.3.4-.7.4-1.1.2-.2-.1-.5-.2-.7-.3-.4-.2-.4-.2-.5.1-.1.3-.4.4-.4.1 0-.1.1-.1.2 0s.1 0 .1-.1c-.1-.1-.2-.1-.4 0-.3.2-.3.2 0 .5s.2.5-.1.2c-.1-.1-.1-.1-.1.1.1.2.1.2-.1.2-.1-.1-.2 0-.1 0 .1.2-.1.1-.5-.2-.2-.2-.4-.3-.4-.2-.1.2.3 1 .5 1 .1 0 .2.2.3.4.1.3.2.4.4.4s.3.1.4.3c.1.3.5.8.5.6 0-.1.1 0 .3.2.2.3.2.3.1.5-.2.2-.2.2-.2-.1 0-.2-.1-.3-.2-.4s-.2-.1-.2-.1-.1 0-.2-.1c-.2-.2-.2-.1-.2.1s0 .2-.3.2-.3 0-.2.2c.1.2 0 .3-.2.3-.1 0-.3-.1-.4-.2-.1-.1-.1 0 0 .2.3.6.3 1.3.1 1.3-.1 0-.1-.2-.1-.3 0-.2-.1-.3-.1-.3-.1 0-.1.1-.1.1 0 .1-.1.1-.1.1-.1 0-.1-.1-.1-.2 0-.2-.1-.2-.3-.1-.3.1-.3 0-.4-.4-.1-.5-.6-1.2-.6-.8 0 .2-.3.2-.3-.1-.1-.1-.1-.3-.2-.3-.1-.1-.1-.2 0-.3.2-.5.2-.7 0-.9-.1-.1-.3-.2-.4-.2-.2 0-.4-.4-.2-.6.1-.1 0-.2-.2-.3-.3-.2-.3-.3-.3-1.1l.1-.9-.7-.5c-.4-.3-.7-.5-.9-.5-.1 0-.3-.1-.3-.1 0-.1-.3-.1-.5-.2-.4 0-.4 0-.1-.1l.3-.1h-.3c-.2 0-.4-.1-.5-.3-.1-.2-.3-.3-.4-.3-.3 0-.9-.6-.7-.7.1-.1.1-.2-.1-.3-.1-.1-.2-.3-.1-.5s0-.2-.1-.1-.2.2-.2.4-.1.2-.1.2c-.1 0-.1-.2-.1-.4s0-.3-.1-.1c-.1.2-.4.1-.5-.4-.1-.2-.1-.4 0-.5.3-.2-.1-.1-.6.1-.4.2-.5.4-.3.6.1.1.1.2 0 .3 1 .7 1.7 1.7 2.1 2.9zm16.2 8.4c.2 0 .3-.1.3-.1 0-.1.2-.1.5-.1s.6-.1.7-.2c.1-.1.3-.2.4-.2.2 0 .1.2-.2.4-.2.1-.2.3-.2.4 0 .1 0 .2-.1.2s-.3.1-.5.3c-.3.3-.4.3-.7.1-.5-.4-.6-.8-.2-.8zm-8.1-.6c.1-.1.1 0 .2.1s.1.1.2.1h.2c0 .1.3.1.7.2.4 0 .7.1.9.2.2.2.2.2.1 0-.1-.1 0-.2.1-.1.4.1.1.3-.5.4-.4.1-.7.1-.8 0 0-.1-.3-.2-.6-.2-.4-.1-.5-.2-.5-.3v-.4zM23 25c.4.1.8.6.8.8 0 .1.2.2.5.3.3.1.6.3.7.4.1.1.6.2 1.2.3.5 0 1 .1 1.1.2.1.1-.3.9-.4.9-.1 0-.1.2-.1.3 0 .2-.1.4-.1.4-.1 0-.1.2-.2.3-.1.2 0 .2.3.2s.4 0 .4.3c0 .4 0 .4-.7.1-.3-.1-.4-.1-.3.1.1.1.1.3.1.4 0 .1.1.3.2.4.1.1.2.3.2.4 0 .4.3.5.6.1.2-.2.3-.3.4-.2 0 .1.1.2.2.2s.1-.1.1-.1c0-.1.1-.3.3-.5.3-.2.4-.5.4-.8 0-.3.1-.5.1-.5.1 0 .1-.2.1-.4s.1-.3.1-.3c.1 0 .1-.2.1-.6l-.1-.6.8-.1c.7-.1 2.2-.9 2.7-1.4.3-.3.7-1.3.7-1.7 0-.3-.5-.9-.8-.9-.1 0-.1 0-.1-.1s.3-.5.5-.5c.1 0 .4-.2.7-.5.3-.3.6-.5.6-.5.1 0 .1-.1.1-.2s0-.3.1-.5c.1-.3.1-.3-.2-.2-.5.1-.4 0 .1-.2s.8-.6.8-1c0-.2.2-.5.3-.6.3-.3.3-.3 1-.2 1.5.3 1.6.3 1.8.2.1-.1-.1-.2-.1-.2v-.3s.4.1.5.2c.2.2.7.6 1 .9.2.1.2.2.1.3-.1.2-.1.2.2.3.2 0 .5.1.7.1.2 0 .4.1.4.2s0 .1-.1.1-.1 0 0 .1 0 .2 0 .2c-.2.1-.6 1.1-.5 1.3 0 .2.2.5.7.9.2.2.3.1.7-.1.3-.2.6-.3.7-.3.1 0 .5-.3.9-.8.4-.4.8-.7.9-.7.1 0 .1 0 .1-.1-.1-.1.2-.6.4-.6.1 0 .1.3 0 .6 0 .3 0 .8.1 1 .1.2.2.6.2.9 0 .3.1.5.3.6.2.1.2.2.1.5-.1.2-.2.4-.1.4.2.2.1.8-.1.8-.2.1-.2.1.1.4.3.3.4.6.1.8-.1.1 0 .1.1.1.3-.1.9.1.9.3 0 .1.1.2.3.1.4-.1.9.3.6.5-.3.2 0 .7.4.8.4.1.4.3.2 1.2-.2.7-.2.8-.8 1.1-.3.2-.6.3-.6.3h.4c.3 0 .3 0 .2-.1-.1-.1-.1-.1.2-.1.3 0 .3.1.3.2-.1.1-.1.2-.2.2s-.1.1-.1.2c.1.3-.1.6-.2.3-.1-.1-.2 0-.5.3l-.6 1.1.4.1c.4.1.6.3.2.3-.1 0-.2.1-.2.2-.1.1 0 .2.3.2.2 0 .4-.1.4-.1 0-.1.1-.1.2-.1s.2.1.2.2.1.1.2-.1.2-.2.3-.1c.1.1 0 .2-.1.2s0 .1.1.1c.3.2.4.4.1.5-.3.1-.2.5.1.4.2-.1.2 0 .2.2s-.2.2-.4.2-.3 0-.2.1c.1.1.1.2-.1.4s-.2.3-.2.3.2-.1.3-.3c.1-.2.3-.3.4-.3.2 0 .2 0 .1.2-.1.1-.2.2-.2.1-.1 0-.1 0-.1.1s.1.2.1.2c.1 0 .1-.1.1-.1 0-.1.1-.1.1-.1.4 0-.3 1.3-.8 1.4-.5.1-.6-.1-.5-.5 0-.1 0-.1-.1 0-.1 0-.1.2-.1.2.1.1 0 .1-.1.1-.2 0-.2-.3 0-.5s.5-.2-2.7-.4c-1.7-.1-1.9-.2-1-.8.3-.2.4-.3.3-.3-.2.1-.3 0-.3 0 0-.2.4-.5.5-.4.1 0 .1 0 .2-.1 0-.1.2-.2.3-.2.1 0 .2-.1.2-.2 0-.2.6-1.1 1.5-2l.6-.8h-.4c-.5 0-1.2.4-1.6.8-.2.2-.5.4-.6.5-.2.1-.3.2-.4.3-.1.1-1.1.2-2.7.1-1.6 0-2.8.1-3 .1-.2.1-.5.3-.7.6-.2.2-.5.4-.6.4-.4 0-1.3.5-1.8 1s-.4.5.3.1c.8-.5 2.4-1.1 3.2-1.1 1.1 0 1.4.8.4 1.2-.6.2-.7.4-.2.3l.3-.1-.4.5c-.2.2-.5.6-.5.7-.1.5.1.8.3.9.3.1.3 0 .1-.3-.2-.3-.2-.5 0-.4.1 0 .2 0 .2-.1s.1-.2.2-.2.2 0 .1.2c-.1.4.1.5.9.5.7 0 .7 0 .4.2-.2.1-.4.3-.4.3 0 .1-.1.1-.3.1s-.3-.1-.3-.1c0-.2-.6-.2-.7 0-.1.2 1 .4 1.3.3.2-.1.3-.1.3 0s.3-.2.8-.7c.6-.7.8-.8.9-.7.1.1.1.2 0 .4-.2.4-.2.4 0 .4.1 0 .2.1.2.2 0 .2-.6.7-.9.7-.1 0-.3.1-.4.3-.1.2-.2.2-.2.2-.1-.1-1.9.6-2.2.8-.1.1-.2.1-.3 0-.1-.1-1.1.6-1.1.8 0 .1-.1.1-.3.1s-.2.1-.2.2c0 .2-.4.2-.6-.1-.1-.1-.2-.4-.1-.6 0-.3.2-.5.9-.9.5-.2.8-.5.8-.6 0-.1-.2-.1-.4 0s-.5.2-.7.2c-.4.1-1 .3-.7.3.3 0 .1.2-.2.3-.2 0-.5.1-.7.2-.2.1-.8.4-1.3.6-1.1.4-1.9 1-1.9 1.4 0 .1-.1.3-.2.4-.1.1-.2.2-.1.5.1.4.4.4.4.1 0-.2 0-.2.1-.1.2.2 0 .6-.3.6-.1 0-.3.1-.3.2s-.2.1-.3.1c-.1 0-.5 0-.8.1-.3.1-.5.2-.4.2.4 0-.3.4-1.2.6-.6.1-.7.2-.9.6-.1.3-.4.7-.7 1-.6.5-.7.6-.7.3 0-.1-.1-.2-.1-.1-.1 0-.1.3-.1.5.1.3 0 .5-.3.8-.2.2-.4.3-.5.3-.1-.1-.1 0-.1 0 0 .1-.1.3-.2.5-.3.4-.3.4-.3.1 0-.2.1-.3.2-.4.1-.1.2-.3.2-.6 0-.4-.2-.4-.2.1 0 .1-.1.4-.2.7-.1.3-.1.4 0 .6.1.1.1.6.1 1.1 0 .8 0 1-.3 1.1-.1.1-.3.1-.4.1-.1 0-.1-.1.1-.1.1 0 .3-.1.3-.3.1-.2.1-.2-.4 0-.4.2-.5.3-.4.4.2.2-.1.5-.5.5-.3 0-1.2.6-1.4.8 0 .1-.2.1-.4.1s-.5.2-.8.6c-.3.3-.7.7-.9.8-1.6.9-2.3 2.4-1.9 4.1.1.2.1.5.1.6l3.2 9.2.1.3c.1 0 .1.1.2.1s.2.1.4.1c14.5-5 35.9-10.3 60.6-10l.2-.2c.3-.2.5-.5.5-.6 0-.1.1-.2.2-.3.1-.1.2-.5.2-1.1 0-.7.1-1 .3-1.3.2-.2.3-.5.3-.7 0-.3.8-1.1 1.5-1.5.8-.4 1.1-.8 1.5-1.9.2-.4.4-.8.4-.9.2-.2.4-.1.5.2.1.5.6.7 1.4.6.4-.1.8-.1.8 0 .1.1.6.2.9.1.1 0 .3-.2.5-.4s.4-.3.5-.3c.1 0 .2-.1.3-.1 0-.1.2-.1.3 0 .1 0 .2 0 .2-.1s.1-.2.2-.3c-.4-.5-.7-1-1-1.6-.1 0-.1.1-.2.1-.3.1-.4.2-.6.5-.1.2-.3.4-.4.4h-1c-.8 0-1.5.3-1.8.7-.3.4-.7.1-1-.5-.2-.6-.5-.8-1-.6-.2.1-.5.1-.8.1-.5 0-.5 0-.5-.3.2-.6.1-1.3 0-1.3s-.2-.1-.2-.2-.1-.2-.1-.2c-.1 0-.1-.2 0-.4s.1-.4 0-.4c0 0 0-.1.1-.2.4-.3.7-1.5.6-2.5 0-.5-.1-1.1-.2-1.3-.1-.4 0-.7.4-.7.1 0 .3-.1.4-.3.2-.3.7-.4.9-.2.1.1.4.1.7.1 1.6.1 3.3.2 3.5.3.4.1.7-.2.9-.7.2-.5.3-1.9.3-2.1 0-.1-.1-.2-.1-.3 0-.1-.1-.2-.1-.2s-.1-.1 0-.1c0-.1 0-.1-.1-.1S91 37 91 37s-.1-.2-.2-.3c-.1-.2-.2-.2 0-.2.1 0 .1-.1-.1-.3-.3-.3-.7-.4-.6-.1 0 .1 0 .1-.1.1s-.1-.1-.1-.2c.1-.2-.5-.6-.8-.4-.1 0-.2 0-.2-.1s-.1-.1-.2-.1c-.2 0-.2-.7 0-.8.3-.2 1.3-.3 1.4-.2.1.1.4.1.6.1.5 0 .5-.1.3-1-.1-.3-.1-.3.3-.2.2.1.4.2.5.3.3.3.7.2.9-.1.1-.1.4-.3.7-.4.4-.1.5-.2.6-.7.1-.4.2-.5.7-.7.9-.3 1.8-1.2 1.9-1.9.1-.6.6-.9 1.2-.8.2 0 .5 0 .7-.2.2-.1.4-.2.8-.1.6.1.9-.2.6-.5-.1-.1-.1-.2 0-.2s.1-.1.1-.2c0-.2 0-.2-.2-.1-.1.1-.2.1-.2 0-.1-.1 0-.2 0-.3.2-.1.2-.3 0-.5-.5-.6 0-2.1.6-2.1.2 0 .4-.1.5-.2.1-.1.2-.2.3-.2.1 0 .2-.1.2-.1 0-.1.1-.1.1-.1.2 0 .2.8 0 .9-.2.2-.1.5.1.5.3 0 .4.3.1.5-.1.1-.1.1-.1.2s0 .2-.1.2-.1 0-.1-.2 0-.2-.1 0c-.1.1-.1.3-.1.3.1.1.8-.1.8-.2s.7-.3.9-.3c.1 0 .1-.1.1-.2s.1-.2.1-.2c.1 0-.1-.3-.3-.6l-.4-.6c0-.1-.1-.3-.3-.5s-.3-.5-.3-.7c0-.2-.1-.4-.2-.5-.1-.1-.2-.2-.2-.3-.1-.2-.1-.2-.1 0 0 .1-.3.4-.5.5-.3.2-.7.5-1 .6-.6.5-1.2.5-1.9 0-.3-.2-.5-.5-.5-.6 0-.2-.1-.3-.1-.3-.2 0-.1-.8 0-.9.2-.1.1-.4-.1-.3-.2.1-.2-.1-.2-1 0-1 0-1.1.4-1.3.2-.2.4-.2.5-.2.1 0 .1 0 .1-.1s.1-.2.3-.2c.2-.1.3-.1.3-.2s.2-.2.4-.2c.3-.1.4-.2.3-.3-.1-.2 0-.2.1-.2s.2 0 .3-.2c.1-.2.2-.2.4 0s.3.1.8-.4c.3-.3.6-.6.7-.6.2-.1.1-.1 0-.2-.2-.1-.1-.2.2-.2.4 0 .8-.4.8-.9 0-.2.1-.4.3-.4.1 0 .3-.1.3-.2s.3-.3.6-.6c.4-.3.6-.6.6-.8 0-.1.1-.3.2-.3s.2-.1.2-.1c0-.1-.2-.1-.4 0s-.4.1-.4.1-.2 0-.4.2c-.5.2-.6.2-.6 0s.9-.6 1-.5c.1.1.1 0 .1-.1-.1-.2.1-.3.5-.5.7-.4.9-.4.7-.1-.1.2-.1.2.2.1.3-.1.3-.1.3.1-.1.1-.1.2 0 .1s.1-.2.1-.4c-.1-.3.1-.4.6-.5.5-.1.5-.1.5-.3 0-.4.8-.5 1.1-.2.1.2.2.1.1 0s0-.2.2-.2c.4 0 1-.2.9-.3-.1-.1.4-.3.9-.3.3 0 .4.1.3.2-.1.1.1 0 .2-.1.2-.2.4-.3.5-.2.1.1.2 0 .3-.1.1-.2.2-.2.6 0 .2.1.3.3.3.4 0 .1.1.1.2-.1.1-.1.2-.2.3-.2-8.3-4.5-17.5-7.5-27.3-8.6 0 .1-.2.1-.4.2-.3.1-.5.2-.5.2 0 .1-.3.2-.6.2-.8.1-1 .2-.7.3.2.1.2.1 0 .1s-.2.1-.1.2c.1.2 0 .2-.4.2-.4-.1-.6 0-.8.2-.3.3-.2.6.1.3.1-.1.2-.1.3 0 .1.1.2.2.4.3.2.1.3.2.2.2-.1.1-.3.1-.4 0h-.2c.1.1.3.1.6.1s.5.1.5.3c0 .2 0 .2-.1.2s-.1.4-.1.6c-.1.5-.3.6-.2.1 0-.2 0-.2-.1-.2-.1.1-.1 0-.1-.1.1-.2 0-.2-.4-.3-.6-.1-.8.1-.4.3.4.3.5 1 .1 1.3-.1.1-.2.3-.1.3.1.2.7.1.6 0-.2-.3.1-.6.5-.6.2 0 .3.1.3.1 0 .1 0 .1.1.1s.2.1.1.1c0 .1-.2.1-.3 0-.1 0-.3 0-.3.1-.2.2-1.1.7-1.3.7h-.4c-.2 0-.3.1-.1.1.4.1.1.6-.4.6-.6 0-.9.2-.8.4.1.2 0 .3-.2.3s-.2 0-.1.1c.3.4-.1.7-.5.6-.3-.1-.3 0 .1.2s.5.3.4.8c0 .3-.1.6-.2.7-.2.1-1.5 0-1.6-.2-.1 0-.1-.2-.1-.3 0-.2-.1-.2-.4-.2-.3 0-.4.1-.3.3 0 .2 0 .3-.3.3-.4 0 .6.2 1.6.3l.7.1-.9.4c-.5.2-.9.4-1 .4-.1 0-.3.1-.6.3-.5.3-2.4.7-4.2 1.1-.4.1-.6 0-.7-.1-.1-.2-.1-.2-.2 0-.1.1-.3.3-.5.3-.2.1-.6.4-1 .7-.4.4-.9.7-1.3.9-.4.1-.8.3-.8.4s-.2.1-.3 0c-.1 0-.1 0-.1.1s-.1.2-.2.2-.2.1-.2.1c0 .2-.6 0-.9-.2-.1-.1-.2-.1-.1 0s-.1.2-.5.2c-.3 0-.6.1-.5.1.1.1-.7.5-.8.5-.1 0-.1.1 0 .2.1.2 0 .4-.2.6-.1.2-.3.4-.3.5 0 .1-.1.2-.2.3-.1 0-.4.2-.6.4-.2.2-.5.4-.7.5-.2.1-.4.3-.4.5-.1.2-.3.6-.5.8-.2.2-.5.6-.5.7-.1.2-.2.3-.2.3-.1 0-.2.1-.3.3-.2.4-.8.6-1.1.4-.2-.1-.4-.2-.5-.2-.1 0-.2-.2-.2-.3 0-.3-1.1-.7-1.4-.5-.3.2-.5.2-.5-.2 0-.2-.1-.3-.2-.4-.1 0-.3-.3-.3-.6-.1-.3-.2-.5-.3-.5-.1 0-.1-.2 0-.4 0-.3 0-.4-.1-.4-.2 0-.4-.7-.3-.8.1-.1.1-.1-.1-.2s-.2-.2 0-.7c.1-.3.1-.5.1-.5-.1 0-.1-.1 0-.2.1-.2 0-.2-.1-.1-.2.1-.2 0-.2-.2.1-.2 0-.3 0-.4-.2-.1.1-.6.4-.7.2-.1.2-.1.1-.1s-.2-.1-.2-.2c0-.2.6-.9.7-.9.1 0 .2-.2.4-.4.3-.4.4-.4.9-.4.5.1.6.1.8-.3.3-.6.3-1 0-1-.2 0-.3-.1-.4-.2-.1-.1-.2-.1-.2-.1-.1 0 .1.2.3.2.5.2.3.4-.4.7-.6.2-.7.2-1.1 0l-.4-.2.2-.3c.1-.2.2-.4.2-.5 0-.1.1-.1.3 0h.2c-.1 0-.1-.1-.1-.2.1-.2 1.5-.2 1.6 0 .1.2.3.2.3-.1 0-.2-.1-.3-.3-.3-.2 0-.3-.1-.3-.2s0-.2-.1-.2-.1.1-.1.2c0 .2 0 .2-.2.2s-.3-.1-.3-.2.1-.1.2-.1h.1c0-.1-.3-.1-.5-.1-.4.1-.5 0-.6-.2 0-.3 0-.4.3-.7.2-.2.3-.3.2-.4-.2-.1-.2-.3.1-.3.2 0 .2 0 .1-.1-.2-.1-.2-.2.1-.4.2-.3.2-.3-.1-.2l-.3.1.3-.3c.2-.2.2-.3.1-.2-.1 0-.3 0-.3-.1-.1-.1.1-.2.2-.2.2 0 .2 0 .1-.1-.2-.1-.2-.1 0-.3.2-.2.2-.2-.1-.3-.3-.1-.5-.5-.2-.5.4 0 .1-.1-.9-.4-.9-.2-2.7-.3-3-.1-.1 0-.3 0-.5-.1-.3-.1-.4-.1-.3 0 .1.1-.1.1-.6.1-.1 0-.2 0-.3-.1-2.6.9-5.1 2-7.6 3.2h.1c.2 0 .3.2.3.3s.1.4.2.4.2.1.1.1c0 .1 0 .1.1.1s.1.1 0 .2c-.1.2-.1.2 0 .1s.4-.2.7-.2c.4 0 .6.1.6.3 0 .2.1.2.2.2s.1 0 .1.2c0 .1.1.2.1.2.1 0 .3 0 .6.1.7.2 1.2 1 .8 1.1-.1 0-.1.1 0 .3.2.2 0 .5-.2.3-.2-.1-.7.2-.7.4 0 .1.2.2.4.3.2.1.5.3.5.3.1.1.2.1.4.1.2-.1.4 0 .6.3.2.2.4.4.5.4.1 0 .1.1.1.2-.1.1 0 .1.1.1s.3.1.5.2l.4.3-.5.1c-.2.1-.4.3-.5.3-.2 0-.5.3-.5.6 0 .1-.2.2-.5.1-.4 0-.5 0-.6.2-.1.4-.5.5-.7.3-.1-.1-.3-.1-.3-.1-.1.1-.3-.2-.4-.6-.1-.4-.6-.9-.8-.7-.1.1-.2.1-.3 0-.1-.1-.1-.1 0 .1.2.2.2.4 0 .4-.1 0-.2.1-.1.2.1.5.2.7.4.7.4 0 .6.2.4.5-.1.2-.1.3.1.6s.2.3 0 .5c-.1.1-.3.2-.4.2-.1 0-.2 0-.2.2s-.1.3-.2.3-.1 0 0 .1.1.2.1.3c-.2.2-.5.2-.5-.1 0-.2-.2-.3-.4-.4-.2-.1-.3-.2-.2-.2.1-.1 0-.1-.1 0-.2.2-.2.1-.4-.1-.1-.2-.2-.2-.3-.2-.1 0-.2 0-.3-.2-.2-.2-.3-.2-.3 0 0 .1.1.3.3.3.1 0 .3.1.3.2s.1.3.3.4c.2.2.3.4.3.6 0 .1 0 .3.1.3s.2 0 .2-.1c0-.3.3-.2.4.1.1.4-.2.6-.5.3-.2-.2-.3-.3-.3-.2l-.6-.2c-.4-.2-.8-.3-.9-.3s-.5 0-.6-.1c-.3-.2-.4-.3-.7-.1-.4.2-.6.1-.6-.2 0-.1-.1-.4-.3-.6-.2-.2-.3-.5-.2-.6 0-.1 0-.2-.2-.2-.1 0-.2-.1-.1-.1 0-.1-.1-.2-.2-.2H39c-.2 0-.7 0-1 .1-.6.2-1.1.1-1.3-.2-.2-.2.1-.6.8-.9.4-.2.6-.2 1.1-.1.4.1.8.1 1.1 0 .3-.1.6-.1.7-.1.3 0 .3-.1.1-.4-.2-.2-.1-.3.7-.7.4-.1.7-.3.8-.4.1-.1.3-.2.4-.2.1 0 .2-.1.2-.2s0-.4.1-.6c0-.2 0-.3-.2-.3-.1 0-.3-.1-.3-.2s0-.1-.1 0-.1.1-.3 0c-.2-.2-.2-.2-.1 0 0 .1.2.2.3.2.2 0 .3.1.3.2 0 .2-.1.2-.5.2s-.5-.1-.5-.3c0-.2 0-.2-.2-.1-.1.1-.2.2-.2.3 0 .4-1.6.8-1.8.5-.3-.4.7-1.1 1.5-1.1.4 0 .5-.1.5-.2 0-.2-.1-.2-.4-.1-.3.1-.4.1-.4-.1.1-.1 0-.2 0-.3-.1-.1-.1-.2 0-.4.2-.2.5-.1.4.2-.1.1.1.1.3.1h.4l-.3-.2c-.2-.1-.4-.3-.4-.3 0-.1-.1-.1-.2 0s-.1 0-.1-.1c.1-.2 0-.2-.1-.2s-.2-.1-.2-.2-.1 0-.1.1c-.1.2-.2.3-.4.3s-.3.1-.3.2c0 .2.2.1.7-.1.1-.1.2 0 .2 0 0 .2-.9.9-1.1.9-.1 0-.1 0-.1.1 0 .3 0 .5-.2.5-.1 0-.2.1-.2.2s-.1.1-.2.1c-.1-.1 0-.2.2-.4s.2-.3.1-.3c-.3 0 .1-.4.4-.5.4-.1.2-.4-.2-.3-.2 0-.4 0-.6-.1l-.9.6v.1c-.1.2-.3.4-.5.5-.6.2-.9.6-.7.8.1.2.1.3-.2.5-.2.2-.4.3-.5.3-.1 0-.3.1-.5.2s-.5.2-.6.2-.3.1-.3.2c-.1.2-.1.2-.3-.1-.3-.3-.3-.4-.3.5 0 .2-.1.3-.2.3-.5 0-.6-.1-.5-.2 0-.1 0-.2-.1-.3-.1.1-.2.1-.2.2v.2c-.1.3 0 .4.1.5.6.3 1.1.7 1.1 1 0 .2.1.3.2.2s.2 0 .3.2c.1.2.1.3-.3.4-.5.2-1.5.1-1.4-.2.1-.3-.5-.4-.7-.1-.1.2-.3.3-.4.3-.1 0-.4.1-.7.3-.6.4-1 .4-.9 0 .1-.3 0-.3-.4-.2h-.3c-2.6 2.1-5.1 4.4-7.4 6.9.1 0 .1 0 .2.1.7-.2 1 0 1.1 0zm65.2-5.9c.1-.1.3-.1.4.1.1.1.1.1.2 0s.1-.1.1 0-.1.2-.1.2c-.1.1-.1.1-.1.2s0 .2-.1.2-.1.2-.1.3c.1.2.1.2-.1 0-.2-.1-.2-.2-.1-.3.1-.1.1-.2.1-.3-.1-.1-.2-.1-.2-.1-.1.2-.1-.2 0-.3zm0 6.1c.3-.1.4-.2.4-.3-.1-.1-.1-.1-.2 0s-.1.2-.1.1v-.1s-.1-.2-.1-.3c-.1-.2-.1-.2 0-.4.1-.1.3-.1.3-.1.1.1.5-.3.8-.8.1-.2.3-.3.5-.3.4.1.9-.1.9-.3 0-.1.1-.2.1-.3.2-.2.8-.2.7 0 0 .1-.2.3-.3.5-.1.2-.2.3-.2.3.1 0-.1.1-.2.3-.2.2-.4.3-.5.3-.1 0-.1.1-.1.1 0 .1.4.1.8.1.8 0 1 .2.7.5-.1.1-.2.3-.2.4 0 .1-.1.2-.3.4-.3.2-.3.7 0 .7s.6.5.7 1c0 .2.2.4.3.5.3.2.7.6.7.8 0 .1.1.3.2.5.1.3.1.4 0 .6-.2.2-.1.2.1 0 .3-.2.9-.1 1.1.3.1.3-.1.9-.5 1.1-.2.1-.2.5 0 .5.1 0 .2.1.2.2 0 .2-1 .6-1.6.6-.3 0-.5 0-.5.1s-.4.1-.9.1c-.7 0-.9 0-1.1.2-.2.2-.3.2-.6.2-.2 0-.5 0-.6.1-.3.2-.6.2-.8.1 0 0 .1-.2.4-.3.2-.1.4-.3.4-.4 0-.2.6-.7.9-.7.6 0 .1-.3-.5-.3-.8 0-.8-.4-.1-.7.6-.3.7-.7.1-.6l-.1-.1.3-.3c.3-.3.4-.5.2-.3-.1 0-.1 0-.1-.1s.2-.1.5-.1h.6c.3-.2.3-.6 0-.9-.1-.1-.2-.3-.2-.4.1-.2-.8-.2-.9 0-.1.1-.2 0-.2-.2-.1-.2-.1-.3 0-.3s.2-.1.2-.2c.1-.2 0-.2-.3-.1s-.4 0-.4-.2 0-.2.1 0l.1.1c0-.2-.2-.3-.3-.2-.2.2-.4.1-.4-.2 0-.1.2-.2.4-.3.3-.1.3-.2.1-.2-.1 0-.2-.2-.2-.3 0-.2-.1-.2-.3-.1-.2.1-.3.1-.3 0-.1 0 .1-.2.3-.3zm-3.1 4c-.4-.1-.4-.2-.2-.5.1-.2.1-.2 0-.2s-.1-.1 0-.3c.1-.2.2-.2.7-.2.3 0 .6 0 .6-.1s0-.1-.1-.1c-.2 0 .4-.7.7-.9.5-.2 1.5 0 1.7.4.3.4.3.8-.1.9-.3.1-.3.2-.3.7 0 .3-.1.8-.2 1.1-.1.5-.2.5-.5.5-.2 0-.7.2-1 .3-.6.4-1.6.6-1.6.4 0-.1-.1-.1-.2-.1-.1.1-.2 0-.1-.1s0-.2 0-.2c-.3 0-.1-.5.4-.9.6-.4.6-.6.2-.7zm-8.8-13.6c.1-.1.3-.2.4-.2.1 0 .1-.1.1-.2s.1-.2.2-.2.3-.1.5-.2c.2-.3.2-.3.7.1.3.2.4.4.4.6-.1.3.1.4.2.1 0-.1.2-.1.3 0 .1 0 .2 0 .2-.2 0-.3.3-.4.4-.1.1.2.1.2.2 0 .1-.3.3-.3.9-.3h1.1c.2 0 .3-.1.3-.2 0-.2.4-.3.6-.1.1.1.3.1.5.1.4-.1.5-.1.2.1-.2.1-.2.2-.1.2s.1.1.1.1c0 .1.1.2.3.3.2.1.4.3.4.4 0 .3-.8.9-1.6 1.2-.6.2-1.1.4-1.8.7-.5.2-1.6.2-2.1-.1-.2-.1-.7-.2-1-.2-.5 0-.6 0-.6-.2 0-.1.1-.2.3-.2.3 0 .4-.2.2-.5-.1-.2-1-.3-1-.2 0 .1 0 .1-.1.1s-.2-.1-.2-.1c-.1-.2.1-.2.7-.3 1-.2.9-.5-.1-.4-.8.1-.8.1-.6-.1zM56.2 37c4.1 0 7.5 3.4 7.5 7.5S60.3 52 56.2 52s-7.5-3.4-7.5-7.5S52 37 56.2 37zM136.1 36.1l-.1-.1c-.1-.1-.1-.1-.2-.1 0 .1.1.1.2.2 0-.1.1 0 .1 0zM133.8 40.7c0 .4.2.7 1.2 1.9.7.8 1.3 1.4 1.4 1.4.1 0 .2.1.3.2v.1c.1 0 .2 0 .2.1s-.2.2-.3.1c-.3 0-.4 0-.4.7 0 .4-.1.7-.2.8-.1.1-.2.3-.1.6.1.6.4 1 .8 1 .2 0 .5.2.8.4.7.6 1.2.7 2.2.5.7-.2.8-.3.8-.5 0-.1-.1-.6-.2-1.1-.1-1-.4-1.4-.7-1.3-.2.1-.2 0-.1-.3 0-.3 0-.4-.1-.4-.2.1-.5-.6-.4-1 .1-.3-.3-1.2-.5-1.2-.1 0-.1-.2-.1-.5.1-.6 0-.8-.4-.8-.2 0-.4-.2-.5-.3-.1-.1-.2-.2-.3-.1-.1.1-.2 0-.2-.2s-.1-.3-.1-.3c-.1 0-.2-.2-.3-.4-.1-.2-.3-.4-.4-.4s-.2-.1-.3-.3c-.1-.2-.1-.3.3-.3.2 0 .4-.1.3-.1 0-.1 0-.3.1-.5.1-.3.2-.3.8-.3.4 0 .7.1.7.1.2.1 0-1.2-.2-1.5-.2-.3-.3-.3-.6-.3-.5.1-.9 0-.9-.3-.1 0-.4.2-.7.4-.8.5-1.1.7-1.1 1 0 .1-.1.2-.2.1-.3-.1-.9.4-1 .8-.1.2-.2.5-.3.5-.1.1-.1.1 0 .2.3.5.7 1 .7 1.5z" fill="#93cfd8"/><path d="M134.3 43.5c.7.4 1.4.7 1.8.8-.4-.1-1.1-.4-1.8-.8zM139.4 43.8c.1 0 .3.1.3.2s.1.1.3-.1c.1-.1.3-.2.4-.2.1.1 0-.1-.2-.3-.2-.2-.5-.5-.5-.7-.2-.5-.8-.3-.8.2-.1.5.2.9.5.9zM123.8 58.6c0 .1 0 .2.1.2s.1-.1.1-.2 0-.2-.1-.2c0 0 0 .1-.1.2zM97.3 29.9c-.1.1-.1.2 0 .2s.2-.1.2-.2c.1-.2 0-.2-.2 0zM113.6 46.6c.2 0 .2 0 0-.1-.3-.2-.4-.2-.3 0 0 0 .2.1.3.1zM113.1 47.4v-.3c-.1 0-.1.1 0 .3-.1.1-.1.2 0 0zM112.8 46.9c.1 0 0-.1-.2-.1-.1 0-.2 0-.1.1.2.1.3.1.3 0zM23.8 49.4c-.2 0-.1.1.1.2.1 0 .2 0 .1-.1s-.1-.1-.2-.1zM26.8 131.4c-.1 0-.2-.1-.2-.3 0-.2-.1-.6-.3-.9-.2-.5-.3-.8-.2-1.4.1-.5 0-.8-.1-1.1-.1-.2-.1-.4-.1-.6C14.6 115.9 6.7 102.5 3.3 91 6.5 107.3 15 121.6 27 132.3v-.3c0-.3-.1-.6-.2-.6zM37.2 35.4c.3.2.4.2.3 0 0-.1-.2-.1-.3-.1-.1-.1-.1-.1 0 .1zM2.9 70.7c.3-.2 1.2-.4 1.9-.5.7-.1 1.2-.5 1.5-1.2.2-.4.3-.8.3-.9 0-.1.1-.3.1-.5.1-.3.3-.4 1-.6.5-.1 1.2-.2 1.6-.3.7 0 .8 0 .9.3 0 .2 0 .5-.1.6-.1.2-.1.3 0 .3s.1.1 0 .3c-.2.3-.4.4-.3.1.1-.2.1-.2-.1-.1-.1.1-.2.3-.2.4 0 .1 0 .3-.1.3-.1.1-.1.2-.1.3 0 .1-.1.4-.2.6 0 .3-.1.6-.1.7 0 .1-.1.4-.3.5-.2.2-.3.3-.2.3 0 0 0 .1-.1.2s-.2.4-.2.7c-.1.3-.2.7-.4 1 1.5-.7 3.3-1.4 5.4-2.3l-.7-4.4h-.1c-.4-.1-.4-.2 0-.4v-.3-.1l-1.5-9.5c-.5 0-.8.1-.9.2 0 .1-.2.3-.3.4-.2.2-.2.2 0 .5.3.2.3.2 0 .5-.2.2-.3.2-.3 0-.1-.1-.1-.3 0-.3.1-.1-.3 0-.4.1-.1.1-.5.2-1 .1-.1 0-.2-.1-.2-.2s-.2-.2-.6-.2c-.4 0-.7-.1-.8-.2-.3-.3-.9-.1-2.4.9-1 4-1.6 8.1-2 12.3.1.1.2.2.3.2.3.3.4.4.6.2zM18.1 39.4c.4-.5.6-.7 1-.8.2-.1 1-.9 1-1 0-.2-1 0-1.3.3-.1.1-.3.2-.4.1-.1 0-.3.1-.5.3-.2.2-.2.3-.1.2.5-.4.3-.1-.2.6-1.1 1.3-1.6 2.5-1.6 3.3 0 .5.4.4 1-.3.4-.4.6-.7.6-1-.2-.5 0-1 .5-1.7z" fill="#93cfd8"/><path d="M9.1 56.6c.1 0 .2-.1.1-.1 0-.1-.1-.1-.1-.1s-.1-.1-.1 0c-.1.1 0 .2.1.2zM17.3 36.3c.2-.1.5-.2.6-.1.1.1.1 0 .1-.1s0-.2.2-.2c.5-.1.5 0 .1.3-.3.2-.4.3-.2.3.1 0 .3.1.3.2.1.2.6.4.9.2.1-.1.5-.2.8-.2.5-.1.6-.1.5.1-.1.1 0 .2.1.2s.2-.1.2-.2c0-.3.1-.3.2-.7.1-.1.1-.3 0-.3 0 0 0-.2.1-.3.1-.2.1-.2-.1-.1-.4.2-.8-.2-.7-.5 0-.2 0-.4-.1-.4-.3-.1-.7-.1-1.4.2-.4.1-.7.2-.8.2-.1-.1-.1 0 0 .1s.2.1.3.1c.1 0 .2 0 .2.1s-.5.4-.8.4c-.1 0 0-.1.1-.2s.2-.2.1-.2-.2.1-.2.1c0 .1-.3.2-.7.3-.5.2-1.9.9-1.9 1h.5c.5-.1.5-.1.3.2-.3.2-.3.2.1.1.2-.1.5-.2.7-.2-.1-.1.3-.3.5-.4zM37.9 139.5c-.4 0-.6 0-.5.2.1.1 0 .1-.1.1-.2-.1-.2-.1 0 .2.1.1.1.2.2.4 11.5 7.1 25.1 11.3 39.6 11.3.8 0 1.5 0 2.2-.1-14.4-.1-27.6-5.1-39-12.5-.6.1-1.5.4-2.4.4zM137.7 108.6c.3.2.4.1.4-.5 0-.3.1-.6.2-.8.1-.2.2-.3.3-.3.1 0 .6 1.2.7 1.8.1.3.1.7.1 1.1s.1.7.1.9c.1.2.1.4-.1.7l-.2.4-.3-.3-.3-.3.1.6c.2 1.1.1 1.2 0 1.2-.2 0-.2.1-.4 1.1 0 .3-.3 1.1-.6 1.9-.3.7-.5 1.6-.6 2-.1.4-.3.9-.4 1.2-.1.3-.3.8-.4 1.3-.1.4-.2.9-.3 1-.1.2-.2.4-.2.5 0 .4-.5 1-.9 1-.2 0-.5.1-.6.2-.3.2-.9.3-.9.1 0-.1-.1-.1-.2-.1-.3 0-.7-.4-.7-.7 0-.1-.1-.3-.1-.3-.1-.1-.1-.3-.1-.7 0-.4 0-.7-.1-1-.3-.7-.2-1.9.3-2.3.1 0 .3-.4.5-.9.4-.8.4-.8.2-1.7 0-.2 0-.3-.1-.5-10.7 16.2-25.8 32.1-45.4 35.6 36.4-5.3 64.4-36.6 64.4-74.5 0 0-5 15.4-14.9 32.3.3-.1.3-.1.5 0zM150.6 62.5h-.5c0 .1-1.1.1-1.6-.1-.4-.1-.8-.2-1.8-.3-1.2-.1-1.6-.4-1.8-1.1-.1-.3-.2-.6-.2-.7-.1-.2-.6-.2-.5 0 .1.2-.2.4-.6.5l-.3 1.7c.4-.4.7-.9.8-1.1.3-.6.4-.4.4.4 0 1.3.6 2.1 1.7 2.4.6.1 1 .4 1 .7 0 .1.1.2.1.2.1 0 .1.1.2.3 0 .2.2.3.3.3.2 0 .3.1.3.2 0 .3-.3 1-.7 1.5-.3.4-.4.7-.2.6.2-.1.2.2 0 .5-.2.2-.2.2-.4 0-.3-.4-.5-.1-.5.8 0 .8 0 .8-.3.8-.4 0-.8.4-.8.7 0 .3-.2.5-.7.6-.3 0-.4.1-.4.4 0 .1 0 .2-.1.3 2.8 1.3 5.6 2.7 8.3 4.2 0-4.7-.5-9.3-1.3-13.7.1-.1-.1-.1-.4-.1z" fill="#93cfd8"/><path d="M136.6 110.4c0-.1.1-.2.2-.1.1 0 .2 0 .2-.2 0-.1.1-.3.1-.3.1-.1.1-.2.1-.3 0-.5 0-.6.3-.5h.1c-.1 0-.2-.2-.2-.3v-.1c-.5.9-1 1.7-1.6 2.6.5-.3.8-.6.8-.8zM3.5 74.5c-.5-.7-1.1-1.2-1.6-1.2h-.1c0 .9-.1 1.9-.1 2.8L3.9 75c-.1-.1-.2-.3-.4-.5zM20.2 42.3c.1 0 .3-.1.3-.1.1-.1-.1-.1-.2-.1s-.3.1-.3.1c-.1 0 0 .1.2.1z" fill="#93cfd8"/><path d="M23 41.4c-.3.1-.4.1-.3.2.1.1 0 .1-.4.1-.5-.1-.7 0-1.3.3-.4.2-.8.5-.8.6-.1.1-.1.1-.1 0s-.1-.2-.3-.2c-.3 0-.3.2 0 .4s.8.1 2-.5c.9-.4 1.9-.9 1.9-1 0 0-.1-.1-.2 0 0 0-.3.1-.5.1zM132.6 42.3zM45.1 28.6c0-.1-.4 0-.6.2-.2.2-.2.2.2.1.3-.2.4-.3.4-.3zM23.9 40.7c.3-.1.8-.1 1.1 0 .8.1 1.6-.2 1.6-.7 0-.1-.1-.1-.3-.1s-.3 0-.3.1-.4.1-.8.1c-.6 0-1 .1-1.3.2-.6.4-.6.6 0 .4zM22.2 37.9c0 .1.1.1.1.1.1 0 .2-.1.2-.1 0-.1 0-.1-.1-.1s-.2 0-.2.1zM22.4 37.5c-.3-.1-1.1-.1-1.1 0s.3.1.6.1.6-.1.5-.1zM23.8 47c-.1 0-.1.1 0 .2.2.2.3.2.2-.1 0 0-.1-.1-.2-.1z" fill="#93cfd8"/><path d="M20.6 37.9c0 .1.1.3.3.4.3.2.4.4.2.5-.1 0-.1.1-.1.2s-.2.4-.5.8-.5.6-.5.6c.1 0 .2-.1.3-.2.1-.1.3-.2.5-.2s.3 0 .2.5v.6c.2 0 .7-.5.7-.8 0-.2.3-.5.5-.7.3-.3.4-.5.3-.7-.1-.5.2-.5.4.1.5.8 1 .3.7-.7-.2-.5-.5-.6-.8-.1-.2.3-.2.3-.7.1-.2-.1-.7-.2-1-.3-.4-.3-.5-.3-.5-.1zM135.3 34.2c.3.4.4.6.4 1 0-.4-.1-.6-.4-1zM38.9 16.6c0 .1 0 .2.1.2s.2-.1.2-.1c0-.3-.2-.3-.3-.1zM40.8 12.2c0 .1 0 .1.1.1s.2-.1.2-.1c0-.1 0-.1-.1-.1 0 0-.1 0-.2.1zM41.6 12.3h.2c.1-.1 0-.1-.2 0-.1-.1-.1 0 0 0zM41.7 13.3h.4c.1 0 0-.1-.2-.1s-.4 0-.2.1zM88.3 24.4c0 .1 0 .1.1.1s.1-.1.1-.1c0-.1 0-.1-.1-.1l-.1.1zM32.7 15.4s-.1 0 0 0c-.1 0-.1 0 0 0 0 .1 0 .1 0 0zM127.6 40.1c.2.2.6.3.9.4-.3-.1-.7-.3-.9-.4-.2-.1-.3-.2-.5-.2.1 0 .3 0 .5.2zM43.4 14.9c.7-.1.9-.3.4-.4-.2 0-.3-.1-.3-.2 0-.3-.4 0-.5.4-.1.2 0 .2.4.2zM37.1 12.5c.1 0 .1-.1.1-.1v-.1s-.1.1-.1.2c-.1-.1 0 0 0 0zM46.5 11.1c.1 0 .3-.1.3-.1 0-.1-.4-.1-.4.1-.1.1 0 .1.1 0zM78.1 8.4c0 .2.1.3.3.3.4.1.5 0 .1-.1s-.3-.5 0-.6c.2-.1.2-.1-.3-.1-.4 0-.5 0-.3.1.1.1.2.3.2.4zM40.7 17.6c-.1 0-.2.1-.2.1 0 .1.1.1.1.1.1 0 .2-.1.2-.1.1 0 0-.1-.1-.1zM47.3 11.7c-.2 0-.4 0-.4.1 0 0 .2.1.4.1s.4 0 .4-.1c.1-.1-.1-.1-.4-.1zM44.7 19.9c.1 0 0-.1-.2-.1-.1 0-.2 0-.1.1.2.1.3.1.3 0zM50 14.4c0-.1-.2-.1-.3-.1-.3 0-.2.1.1.2.1 0 .2 0 .2-.1z" fill="#93cfd8"/><path d="M47.1 11.3c.6-.1.8-.2.7-.3-.1-.1-.2-.1-.3-.1-.2.1-.2.1-.1-.1.1-.1.1-.2 0-.2s-.1.1-.1.3c0 .1-.2.2-.6.3-.8.3-.6.3.4.1zM44.2 9.2c.1-.2.1-.2-.2 0-.2.1-.2.1 0 .1l.2-.1zM46 10.3c.2-.2.1-.2-.4 0-.3.1-.3.1-.1.1.2 0 .4-.1.5-.1zM106.2 12.6c.1 0 0-.1-.2-.1s-.2 0-.2.1h.4zM102.1 27.2c.1 0 .1.1.1.1s0 .1.1.1.2-.1.2-.2-.1-.1-.3-.2c-.1 0-.3 0-.3.1s.1.1.2.1zM102 27.5c-.1-.1-.2-.1-.2 0s-.1.1-.3 0c-.4-.2-.4.1 0 .3.4.2.8-.1.5-.3zM105.3 12.7c-.1-.2-.2-.3-.2-.1 0 .1.1.2.1.2.1.1.1 0 .1-.1zM109.8 27.2c0 .1.1.1.2 0s.1-.2.1-.2c-.1-.1-.3 0-.3.2zM110.9 46.5c-.2-.3-.2-.3-.2.2 0 .3.1.5.1.4h.2c.1 0 .1-.1.2-.2 0-.1 0-.2-.1-.2.1.1-.1 0-.2-.2zM56 16.9c-.2-.1-.2-.1 0 0 0 .2.1.2.2.2 0-.1-.1-.2-.2-.2zM79.5 8.3h.2c.1-.1 0-.1-.2 0-.1-.1-.1-.1 0 0zM79.7 8c.1 0 0-.1-.2-.1s-.3 0-.2.1h.4zM112.2 10.3c0-.1 0-.1-.1-.1l-.1.1c0 .1 0 .1.1.1s.1-.1.1-.1zM106.6 11.8c0-.2 0-.2-.3 0-.2.1-.2.1 0 .1s.3 0 .3-.1zM123.2 38.3c.1-.1.5-.1.9-.1.7.1.7.1.8-.3 0-.2.2-.4.3-.5.2-.1.2-.1-.1-.2-.2 0-.3-.2-.3-.3 0-.1 0-.2.1-.1.1 0 .3-.1.5-.2.4-.2.4-.3.1-.2-.4 0-1 .2-1.3.3-.1.1-.4.1-.6.2-.2 0-.5.2-.7.5l-.3.4.3.4c0 .1.2.2.3.1zM78.8 7.8c.1 0 .1-.1.1-.1 0-.1-.1-.1-.1-.1l-.1.1c-.1 0 0 .1.1.1z" fill="#93cfd8"/><path d="M111 21.8c0-.1-.2-.2-.5-.2-.2 0-.4-.2-.4-.2 0-.1-.1-.1-.2-.1-.2 0-.2-.1-.2-.7 0-.4 0-.8-.1-1-.1-.1-.2-.4-.2-.5-.1-.2-.1-.3.1-.5s.2-.2 0-.3c-.1 0-.2-.2-.1-.2.1-.1.2-.1.3-.1.2.1.9-.3.9-.5 0-.1.1-.1.2-.1.3 0 1.1-.9 1-1.1 0-.1 0-.2.2-.1s.3 0 .3-.2-.1-.3-.4-.3c-.6-.1-1.6-.1-1.6.1 0 .1-.1.1-.1.1-.1 0-.2.1-.4.4-.2.3-.3.4-.1.5.1.1.1.2-.3.6-.3.3-.5.5-.6.5-.3 0-1.1.5-1.1.6 0 .1-.2.3-.4.4-.2.2-.4.4-.4.6 0 .2 0 .5-.1.6-.2.4 0 .7.4.9.7.3.8.4.9.7.1.3.1.4 0 .5-.1.1-.2.2-.2.4 0 .1-.1.3-.3.3-.2.1-.3.1-.4.1 0 0-.2.1-.3.1-.2.1-.3.1-.3.2 0 .5-.1 1-.2 1.2-.1.3.1.5.2.1 0-.1.1-.1.1-.1.1.1-.2 1.1-.4 1.2 0 0-.1 0-.2-.1-.1-.2-.1-.2-.1 0s-.1.2-.5.2c-.5 0-.9.2-.9.6-.1.2-.2.3-.6.3-.5 0-.6 0-.6-.3-.1-.2-.1-.3-.1-.1 0 .1-.1.2-.2.2s-.1 0-.1.1c.1 0 0 .2-.1.3-.1.2-.1.2 0 .1s.2 0 .2 0c0 .1 0 .1-.1.1s-.2.1-.3.2c-.1.1-.1.2-.2.1s-.7.4-.6.6c.1 0 .3 0 .6-.2 1.2-.6 1.6-.7 1.6-.3 0 .4.4.5 1.2.3.4-.1.8-.3.9-.3.3-.4 2.1-.6 1.9-.2-.1.2.3.3.6.2.2-.1.3-.2.3-.4 0-.1.1-.2.2-.2.4 0 .7-.4.6-1.1-.1-.9.2-1.7.7-1.9.3-.1.4-.1.8.3l.5.5c.4 0 .5-1.4.1-1.4-.1 0-.2-.1-.3-.1-.1-.2-.6 0-.6.1s-.1.1-.2.1-.3.1-.3.2c-.1.2-.2.1-.3-.3-.1-.3-.1-.4.1-.4s.3-.3.1-.3c-.2 0 .3-.2.5-.2.1 0 .2.1.2.2s.1.2.2.3c.2.1.3-.1 0-.2-.4-.2 1.1-.9 1.7-.8 1.3.2 1.9.2 1.9 0 0-.1.2-.2.3-.2.5 0 .5-.2.2-.4s-.5-.2-1.2-.2c-.5 0-.9.1-1 .2-.1.1-.2.1-.3.1-.1 0-.6.1-1.1.2-.4.2-.8.3-.8.2zM107.7 11.6c.1 0 .2 0 .2-.1s-.1-.1-.2-.1-.2 0-.2.1c0 0 .1 0 .2.1z" fill="#93cfd8"/><path d="M133.2 117.3c-.2.4-.4.8-.5.9-.4.3-.6 1.6-.3 2.3.1.2.2.6.1 1 0 .4 0 .6.1.7.1.1.1.2.1.3 0 .3.4.7.7.7.1 0 .2.1.2.1 0 .2.7.2.9-.1.1-.1.4-.2.6-.2.4 0 .9-.6.9-1 0-.1.1-.3.2-.5s.2-.6.3-1c.1-.4.3-1 .4-1.3.1-.3.3-.8.4-1.2.1-.4.4-1.3.6-2 .3-.7.5-1.6.6-1.9.2-1 .2-1.2.4-1.1.2 0 .2-.1 0-1.2l-.1-.6.3.3.3.3.2-.4c.2-.3.2-.5.1-.7-.1-.2-.1-.6-.1-.9s-.1-.8-.1-1.1c-.2-.6-.7-1.8-.7-1.8s-.2.1-.3.3c-.1.2-.2.5-.2.8 0 .6-.1.7-.4.5-.1-.1-.2-.1-.2-.1v.1c0 .1.1.2.2.3h-.1c-.3-.1-.3 0-.3.5 0 .1 0 .3-.1.3s-.1.2-.1.3c0 .2-.1.2-.2.2-.1-.1-.2 0-.2.1 0 .2-.3.5-.7.7-.8 1.3-1.6 2.6-2.5 3.9 0 .1 0 .3.1.5-.2 1.2-.2 1.2-.6 2zM144.1 60.3c-.1-.2.4-.1.5 0 .1.1.2.4.2.7.2.7.6 1 1.8 1.1.9.1 1.3.2 1.8.3.5.2 1.6.2 1.6.1s.2-.1.5 0 .5 0 .5 0c-1.1-5.8-2.8-11.4-5.1-16.6l-2.5 15c.5-.2.8-.4.7-.6z" fill="#60d66c"/><path d="M144 72c0-.1.1-.2.1-.3 0-.3.1-.4.4-.4.5-.1.7-.3.7-.6s.5-.7.8-.7c.2 0 .3-.1.3-.8 0-.9.1-1.1.5-.8.2.2.2.2.4 0s.2-.6 0-.5c-.2.1-.1-.2.2-.6.4-.5.7-1.2.7-1.5 0-.1-.1-.2-.3-.2-.2 0-.3-.1-.3-.3 0-.2-.1-.3-.2-.3s-.1-.1-.1-.2c0-.3-.4-.6-1-.7-1.1-.2-1.7-1-1.7-2.4 0-.9-.2-1-.4-.4-.1.2-.4.7-.8 1.1l-1.4 8.5c.7.4 1.4.8 2.1 1.1zM121.7 51.1c.3.2.4.2.7-.1.2-.2.4-.3.5-.3.1 0 .1-.1.1-.2s0-.3.2-.4c.3-.2.4-.4.2-.4-.1 0-.2.1-.4.2-.1.1-.5.2-.7.2-.3 0-.5.1-.5.1 0 .1-.1.1-.3.1-.4.2-.3.6.2.8zM105 48.4c.1.1.2.2.4.3.3.1.6-.3.5-.7v-.6c.1-.3.1-.3.3-.3.3.1.9-.4.9-.8 0-.1.1-.3.3-.3.4-.1.3-.6-.1-.9-.3-.2-.3-.2-.2-.6.1-.3.2-.3.5-.3.2 0 .4.1.4.2s.1.2.3.3c.2.2.2.2.3-.1.2-.4-.2-.8-1.3-1.4-.7-.4-.8-.5-.7-.7.1-.1.1-.2 0-.3h-.6c-.3 0-.5-.1-.7-.3.3.8.4 1.6.4 2.4v.1c.1 0 .1.1.2.1.3.1.4.3.6.8.1.4.2.6.1.7-.1 0-.1.2-.1.3 0 .2-.5.4-1.1.5-.2.5-.4.9-.6 1.3h.1c0 .2.1.2.1.3z" fill="#60d66c"/><path d="M112.6 10.4c0-.1-.2-.3-.3-.4-.4-.2-.5-.2-.6 0-.1.1-.2.1-.3.1-.1 0-.3.1-.5.2-.2.2-.3.2-.2.1.1-.1 0-.2-.3-.2-.5 0-1 .1-.9.3.1.1-.5.3-.9.3-.2 0-.3 0-.2.2.1.1.1.2-.1 0-.3-.3-1.1-.2-1.1.2 0 .2 0 .2-.5.3-.5.1-.7.2-.6.5 0 .2 0 .3-.1.4-.1.1-.1 0 0-.1s0-.2-.3-.1-.3.1-.2-.1c.2-.3 0-.3-.7.1-.4.2-.5.3-.5.5.1.2 0 .2-.1.1-.2-.1-1 .3-1 .5s.1.2.6 0l.4-.2s.2 0 .4-.1.4-.1.4 0-.1.1-.2.1-.2.1-.2.3c0 .2-.3.5-.6.8l-.6.6s-.1.2-.3.2c-.2 0-.3.2-.3.4 0 .5-.4.9-.8.9-.3 0-.3 0-.2.2.2.1.2.2 0 .2-.1 0-.4.3-.7.6-.4.5-.5.5-.8.4-.2-.2-.3-.1-.4 0-.1.1-.2.2-.3.2-.1 0-.2 0-.1.2s0 .2-.3.3l-.4.2s-.1.2-.3.2c-.2 0-.3.1-.3.2s-.1.1-.1.1c-.1 0-.3 0-.5.2-.4.2-.4.3-.4 1.3 0 .9 0 1 .2 1 .2-.1.3.2.1.3-.2.1-.2.9 0 .9.1 0 .1.1.1.3 0 .2.2.4.5.6.7.5 1.3.5 1.9 0 .2-.2.7-.5 1-.6.3-.2.5-.4.5-.5 0-.2 0-.2.1 0 0 .1.2.3.2.3.1.1.2.3.2.5s.1.5.3.7.3.4.3.5c0 .1.2.3.4.6s.4.5.3.6c-.1 0-.1.1-.1.2s0 .2-.1.2c-.2 0-.9.2-.9.3 0 .1-.7.3-.8.2 0 0 0-.2.1-.3.1-.2.1-.2.1 0 0 .1.1.2.1.2.1-.1.1-.1.1-.2s0-.2.1-.2c.2-.2.1-.5-.1-.5-.3 0-.4-.3-.1-.5.2-.1.1-.9 0-.9s-.1.1-.1.1c0 .1-.1.1-.2.1s-.2.1-.3.2c-.1.1-.3.2-.5.2-.7 0-1.1 1.5-.6 2.1.2.2.2.4 0 .5-.1 0-.1.2 0 .3.1.2.1.2.2 0 .1-.1.2-.1.2.1 0 .1-.1.2-.1.2-.1 0-.1.1 0 .2.3.4-.1.6-.6.5-.3-.1-.6 0-.8.1-.2.1-.5.2-.7.2-.6-.1-1.1.3-1.2.8-.1.7-1 1.6-1.9 1.9-.6.2-.6.3-.7.7-.4.3-.4.4-.9.5-.3.1-.6.3-.7.4-.2.3-.6.4-.9.1-.1-.1-.3-.2-.5-.3-.3-.1-.4-.1-.3.2.3.9.2 1-.3 1-.3 0-.5-.1-.6-.1-.2-.1-1.1 0-1.4.2-.2.1-.3.8 0 .8.1 0 .2.1.2.1 0 .1.1.1.2.1.3-.1.8.2.8.4 0 .1 0 .2.1.2s.1-.1.1-.1c-.1-.2.3-.1.6.1.2.2.2.3.1.3s-.1.1 0 .2c.1.2.1.4.1.4s.1.1.2.1.2.1.1.1v.1s.1.1.1.2 0 .2.1.3c.1.2-.1 1.6-.3 2.1-.2.5-.5.8-.9.7-.2-.1-1.9-.2-3.5-.3-.4 0-.7-.1-.7-.1-.2-.2-.6-.1-.9.2-.1.2-.3.3-.4.3-.4 0-.5.3-.4.7.1.2.1.8.2 1.3 0 1-.3 2.2-.6 2.5-.1.1-.2.2-.1.2s0 .2 0 .4c-.1.2-.1.4 0 .4s.1.1.1.2.1.2.2.2c.2 0 .2.7 0 1.3-.1.3-.1.3.5.3.3 0 .7-.1.8-.1.5-.2.8 0 1 .6.2.6.7.9 1 .5.3-.4 1-.6 1.8-.7h1c.1 0 .3-.2.4-.4.1-.3.3-.4.6-.5.1 0 .1 0 .2-.1-.5-1-.7-2-.7-3.2 0-4.1 3.4-7.5 7.5-7.5 2 0 3.8.8 5.2 2.1.1-.1.1-.2 0-.3-.3-.2-.1-.4.3-.6.5-.2.9-.2.6-.1-.1.1-.1.2 0 .5.2.5.4.6.5.4.1-.2.1-.1.1.1s.1.3.1.4c.1 0 .1 0 .1-.2s.1-.3.2-.4c.1-.1.1 0 .1.1-.1.1 0 .3.1.5s.2.2.1.3c-.2.1.4.7.7.7.1 0 .3.1.4.3.1.2.4.3.5.3h.3l-.3.1c-.3.1-.3.1.1.1.2 0 .4.1.5.2 0 .1.2.1.3.1.1 0 .5.2.9.5l.7.5-.1.9c-.1.8-.1.9.3 1.1.2.1.3.3.2.3-.2.1 0 .6.2.6.1 0 .3.1.4.2.2.2.2.5 0 .9-.1.1-.1.3 0 .3s.2.2.2.3c.1.3.3.3.3.1 0-.3.5.3.6.8.1.4.1.5.4.4.2-.1.3 0 .3.1s.1.2.1.2c.1 0 .1-.1.1-.1 0-.1.1-.1.1-.1.1 0 .1.2.1.3 0 .2.1.3.1.3.2 0 .2-.7-.1-1.3-.1-.3-.1-.4 0-.2.1.1.3.2.4.2.2 0 .2-.1.2-.3-.1-.2 0-.3.2-.2.2 0 .3 0 .3-.2s0-.2.2-.1c.1.1.2.1.2.1s.1 0 .2.1.2.3.2.4c0 .2 0 .2.2.1.2-.2.2-.2-.1-.5-.2-.2-.3-.2-.3-.2 0 .2-.4-.2-.5-.6-.1-.2-.2-.3-.4-.3s-.3-.1-.4-.4c-.1-.2-.2-.4-.3-.4-.1 0-.5-.8-.5-1 0-.1.2 0 .4.2.4.4.6.5.5.2-.1-.1 0-.1.1 0 .2.1.2 0 .1-.2s-.1-.2.1-.1c.3.3.4.2.1-.2-.3-.3-.3-.3 0-.5.2-.1.3-.1.4 0 .1.1 0 .1-.1.1-.1-.1-.2 0-.2 0 0 .3.3.2.4-.1.1-.2.1-.2.5-.1.2.1.6.2.7.3.4.2.8.2 1.1-.2.2-.2.4-.3.7-.3.2 0 .5-.1.6-.2.2-.2.2-.2-.3-.4-.4-.2-.9-1.3-.7-1.5.1-.1.1-.3.1-.4 0-.2.1-.3.2-.4.2-.1.3-.2.3-.7 0-.6.1-.7.4-.9.2-.1.3-.3.3-.5s.2-.5.4-.8c.2-.2.4-.5.4-.6 0-.1.1-.2.3-.2.2 0 .3.1.3.2 0 .2.7.4 1.3.4.2 0 .4 0 .3.1s-.1.1-.2.1c-.2 0-.7.6-.5.6.2 0 .3.1.7.2.2.1.3.2.3.5s0 .4.3.4c.2 0 .4 0 .5-.2.1-.1.3-.2.4-.2.2 0 .3-.1.4-.1 0-.1.3-.1.5-.1.3 0 .4-.1.4-.2 0-.2.1-.2.6.4.1.1.3.2.4.2.1 0 .3.1.4.2.1.1.3.2.4.2.1 0 .3.1.4.2.2.2.3.2.6.1l-.3.1.3.3c.2.2.6.5 1 .7.5.3.8.5.9.9.4 1-.1 1.4-1.9 1.5-.7 0-1.2 0-1.2-.1s-.2-.1-.4-.1-.4-.1-.5-.1c-.1-.1-.2-.1-.3-.1-.2.1-.3 0-.4-.2-.1-.2-.2-.3-.4-.2-.2.1-.3 0-.5-.2s-.3-.3-1.2-.2c-1 .1-1.8.4-2.1.9-.1.1-.4.2-1 .1-.9-.1-1.3 0-1 .4.3.3-.2.5-1.3.6-.6 0-1.1.1-1.2.2 0 .1-.1.1-.2.1s-.2 0-.2.1.1.2.2.2.2.1.2.3c0 .3.1.4.5.4.1 0 .1.1.1.2s0 .3.1.4c0 .1.1.3.1.4v.1c-.1-.3-.4-.2-.4.1 0 .2.2.4.5.5.2.1.4.2.3.2-.1 0-.1.1 0 .3.1.2.2.4.3.4.1.1 0 .2-.1.2-.3.2-.2.2.4.2.2 0 .2 0 0 .1-.1 0-.2.1-.2.2s.1.1.2.1.2 0 .2.1.1.1.2.1.2-.1.2-.2c0-.2.6 0 .9.3.2.2.4.3.8.2.5 0 .6-.1.5-.6-.1-.4 1 0 1.5.6.4.4 1.4.2 1.7-.2.3-.4.5-.4.8-.2.2.1.3.1.5-.1.3-.3.5-.2.2.2-.2.2-.2.3-.1.4.1.1.1.2 0 .4s-.1.4 0 .4c.2.2.3 1.1.2 1.2-.2.2-.6 1.7-.8 2.6-.2.9-.4 1.2-.9 1.2-.2 0-.5 0-.7.1-.4.1-.4.1-.4.5v.1c-.1-.4-.1-.7-.2-.8-.3-.5-1.8-.3-2.4.3-.2.2-.4.2-.5.2-.1 0-.5-.1-.8-.2-.3-.1-.7-.2-.8-.3-.5-.2-1.3-.4-1.6-.3-.2.1-.3 0-.4-.2-.1-.2-.2-.3-.5-.3-.7 0-1.3-.3-1.4-.6 0-.2-.2-.3-.3-.3-.2 0-.3-.1-.3-.1-.2-.3-1.4 0-1.9.5-.4.4-.5 1-.3 1.4.2.4-.3 1.1-.8 1.1-.1 0-.4-.2-.7-.4-.5-.4-1.3-.7-1.8-.7-.4 0-.8-.3-.9-.8-.1-.3-.2-.5-.4-.6-.2-.1-.5-.2-.7-.4-.2-.1-.7-.2-1-.2-.4 0-.8-.1-1.2-.2-.5-.3-.8-.7-.7-.9 0 0 0-.1-.1-.1s-.2.1-.2.1c0 .2-.4.2-.5-.1-.1-.2-.1-.3.3-.6.2-.2.5-.3.6-.3.1.1.2 0 .2-.1s-.1-.1-.1-.1-.1 0-.1-.1c-1.1.7-2.5 1.1-4 1.1-2.3 0-4.4-1.1-5.8-2.7-.1.1-.2.2-.2.3 0 .1-.1.1-.2.1-.1-.1-.2 0-.3 0-.1.1-.2.1-.3.1-.1 0-.3.2-.5.3s-.4.3-.5.4c-.3 0-.8 0-.9-.1-.1-.1-.4-.1-.8 0-.8.1-1.3-.1-1.4-.6-.1-.3-.3-.3-.5-.2-.1.1-.3.4-.4.9-.4 1.1-.7 1.5-1.5 1.9-.8.4-1.5 1.1-1.5 1.5 0 .1-.1.4-.3.7-.4.4-.4.7-.4 1.4 0 .5-.1 1-.2 1.1-.1.1-.2.2-.2.3 0 .1-.2.3-.5.6l-.2.2c13.6.2 28.2 2.1 43.2 6.8-.1-.4-.2-.6.1-.6.1 0 .1-.1-.1-.3-.2-.2-.5-.7-.7-1.1-.2-.5-.5-1.1-.6-1.3-.1-.3-.3-.6-.3-.7s-.1-.3-.2-.5-.2-.5-.3-.6c0-.2-.2-.5-.5-.8-.2-.3-.4-.7-.4-.9 0-.2-.1-.3-.1-.4-.1 0-.2-.5-.2-.9.1.5.3 1.1.5 1.3.1.2.2.4.2.5 0 .2.9 1.3 1.1 1.3 0 0 .2-.1.3-.2.1-.1.3-.2.4-.2.1 0 .2.1.2.2s.1.2.1.2c.1 0 .1.1.1.1 0 .1.1.3.2.4.1.1.3.5.5.8s.4.7.5.8c.3.4.6 1 .5 1.1-.1.1.3.9.5.9.1 0 .2.1.2.2.1.1.1.2.2.1.1 0 .1 0 .1.1-.1.1 0 .3.2.5.1.2.3.4.3.6 0 .1.1.3.1.3s.1.1.1.3c2 .7 4 1.4 6.1 2.2l3-8.4-.1-.1c0-.1-.1-.2-.1-.2-.2 0-.7-1.3-.6-1.6.1-.2 0-.2 0-.1-.1.1-.2.1-.3 0-.2-.1-.2-.1 0-.1.1 0 .3-.1.4-.2.4-.5.6-.6.8-.4.1.1.3.1.4.1.1 0 .2 0 .4.2l5.6-15.6a75.24 75.24 0 00-20.8-24.7c-.1 0-.4 0-.8-.1s-.8-.3-1-.4c-.2-.1-.3-.1-.6 0-.3.2-.3.6 0 .6.1 0 .2.1.2.1 0 .1.2.1.4.1s.4.1.4.2c.1.4-.6.3-1.3-.1-.3-.1-.6-.3-.7-.3-.1 0-.2-.1-.2-.2s-.1-.3-.3-.4c-.2-.2-.2-.3-.1-.5.2-.3-.1-.6-.7-.7-.2 0-.4-.2-.4-.3-.1-.1.2-.1 1 .1s1.5.3 2 .4c-1.9-1.4-3.9-2.7-6-3.9h-.1.1l-1.5-.9c-.1 0-.3.1-.3 0s0-.1.1-.1c-.1 0-.1-.1-.2-.1s-.2.1-.3.2c.1-.3 0-.3 0-.4zm-13.1 8.1c-.1 0 0 0 0 0 .2-.1.3-.1.2 0 0 .1-.1.1-.2 0zm1.8-.7c-.1 0-.1-.1 0-.2s.1-.2.1-.2c-.1 0 0-.1.2-.3.3-.3.5-.3.5-.1 0 .1-.6.8-.8.8zm-3.8 12.1c0 .1-.1.2-.2.2s-.1-.1 0-.2c.2-.2.3-.2.2 0zm16.1 16.6c.2.1.2.1 0 .1-.1 0-.3-.1-.3-.1-.1-.2.1-.2.3 0zm-.5.7s.1.2 0 .3c0 .1-.1.1-.1-.1s0-.3.1-.2zm-.4-.3c.1 0 .2 0 .2.1-.1 0-.2 0-.2-.1-.2 0-.2 0 0 0zm11.2 11.9c-.1 0-.1-.1-.1-.2.1-.1.1-.2.1-.2s.1.1.1.2 0 .2-.1.2zm15.7-16.1c.1.2.3.5.5.7.2.2.3.4.2.3-.1-.1-.3 0-.4.2-.1.2-.2.2-.3.1 0-.1-.2-.2-.3-.2-.3 0-.6-.4-.6-.9.1-.5.6-.7.9-.2zm-3.9-7.5c0-.4-.1-.6-.4-1 .3.4.4.6.4 1zm.3.7c.1 0 .1.1.1.1 0 .1-.1 0-.1-.1 0 0-.1-.1-.2-.1.1 0 .1.1.2.1zm-3 3.4c.1-.1.2-.3.3-.5.1-.4.8-.9 1-.8.1 0 .2 0 .2-.1 0-.3.3-.6 1.1-1 .4-.2.7-.4.7-.4 0 .2.4.4.9.3.3-.1.4 0 .6.3.2.3.4 1.6.2 1.5 0 0-.4-.1-.7-.1-.6-.1-.7 0-.8.3-.1.2-.1.4-.1.5.1.1-.1.1-.3.1-.4 0-.4 0-.3.3.1.2.2.3.3.3s.3.2.4.4c.1.2.3.4.3.4.1 0 .1.1.1.3 0 .2.1.2.2.2.1-.1.2 0 .3.1.1.1.3.2.5.3.4.1.5.2.4.8 0 .3 0 .5.1.5.2 0 .6.8.5 1.2-.1.4.2 1 .4 1s.2.1.1.4c-.1.3 0 .4.1.3.3-.1.6.3.7 1.3.1.5.2 1 .2 1.1.1.2-.1.3-.8.5-1 .3-1.5.2-2.2-.5-.3-.2-.6-.4-.8-.4-.4 0-.7-.4-.8-1-.1-.4 0-.6.1-.6.1-.1.2-.4.2-.8 0-.6 0-.7.4-.7.2 0 .3-.1.3-.1 0-.1-.1-.1-.2-.1 0 0 .1-.1 0-.1 0-.1-.1-.2-.3-.2-.1 0-.8-.7-1.4-1.4-1-1.2-1.2-1.5-1.2-1.9 0-.5-.4-1-.8-1.2 0-.4 0-.4.1-.5zm1.3 4.2c.7.4 1.4.7 1.8.8-.4-.1-1.1-.4-1.8-.8zm-1.7-1.2zm-5-2.2c.2.2.6.3.8.4l-.8-.4c-.2-.1-.3-.2-.5-.2.1 0 .3 0 .5.2zm-4.7-2.8c.2-.2.5-.4.7-.5.2 0 .5-.1.6-.2.3-.2 1-.3 1.3-.3.3 0 .3 0-.1.2-.2.1-.5.2-.5.2-.1 0-.1 0-.1.1s.1.2.3.3c.2.1.3.1.1.2-.1.1-.3.3-.3.5-.1.3-.1.4-.8.3-.4 0-.8 0-.9.1-.1.1-.2 0-.4-.2l-.3-.4.4-.3zm-10.9-27c0-.1.1-.1.1-.1l.1.1c0 .1-.1.1-.1.1-.1 0-.1-.1-.1-.1zm-4.3 1.1c.1 0 .2.1.2.1 0 .1-.1.1-.2.1-.1-.1-.2-.1-.2-.1 0-.1.1-.1.2-.1zm-1.4.4c.2-.2.3-.2.3 0 0 .1-.1.1-.2.1-.2 0-.2 0-.1-.1zm-.2.7c.2 0 .2 0 .2.1h-.3c-.2-.1-.1-.1.1-.1zm-.8.2c0 .1 0 .2-.1.1-.1 0-.1-.1-.1-.2 0-.2.1-.1.2.1zM102.2 27c.1 0 .3.1.3.2s-.1.2-.2.2-.2 0-.1-.1 0-.1-.1-.1-.1-.1-.1-.1.1-.1.2-.1zm-.7.7c-.4-.2-.4-.5 0-.3.2.1.3.1.3 0s.1-.1.2 0c.3.3-.1.6-.5.3zm8.5-.5c-.1.1-.2.1-.2 0 0-.2.2-.4.2-.3.1.1.1.2 0 .3zm1.3 19.7c-.1.1-.1.2-.2.2h-.2c-.1 0-.1-.2-.1-.4 0-.5 0-.5.2-.2.1.2.2.3.3.2v.2zm1.8-25.4c.1 0 .2 0 .3-.1 0-.1.5-.2 1-.2.7-.1.9 0 1.2.2.4.3.3.4-.2.4-.2 0-.3.1-.3.2 0 .2-.6.2-1.9 0-.6-.1-2.1.7-1.7.8.2.1.2.3 0 .2-.1-.1-.2-.2-.2-.3s-.1-.2-.2-.2c-.2 0-.7.2-.5.2.2 0 .2.3-.1.3-.2 0-.2.1-.1.4.1.5.2.6.3.3 0-.1.2-.2.3-.2.1 0 .2-.1.2-.1 0-.2.5-.3.6-.1 0 .1.2.1.3.1.4 0 .3 1.4-.1 1.4 0 0-.3-.2-.5-.5-.4-.4-.5-.4-.8-.3-.5.2-.8 1-.7 1.9.1.7-.1 1.1-.6 1.1-.1 0-.2.1-.2.2s-.1.3-.3.4c-.3.2-.8.1-.6-.2.2-.4-1.6-.2-1.9.2-.1.1-.5.2-.9.3-.8.2-1.2.1-1.2-.3s-.4-.3-1.6.3c-.3.1-.5.2-.6.2-.1-.1.5-.6.6-.6.1 0 .1 0 .2-.1 0-.1.2-.2.3-.2.1 0 .2-.1.1-.1-.1-.1-.2-.1-.2 0-.1.1-.1 0 0-.1s.1-.2.1-.3c0-.1 0-.1.1-.1s.2-.1.2-.2c0-.2.1-.1.1.1.1.3.2.3.6.3.5 0 .6-.1.6-.3.1-.4.4-.6.9-.6.4 0 .5-.1.5-.2 0-.2 0-.2.1 0 .1.1.1.2.2.1.2-.2.5-1.2.4-1.2-.1 0-.1 0-.1.1-.1.3-.3.2-.2-.1.1-.2.1-.7.2-1.2 0-.1.1-.1.3-.2.2-.1.3-.1.3-.1s.2-.1.4-.1c.2-.1.3-.2.3-.3 0-.1.1-.3.2-.4.2-.1.2-.2 0-.5s-.3-.4-.9-.7c-.4-.2-.5-.5-.4-.9.1-.1.1-.4.1-.6 0-.2.1-.4.4-.6.2-.1.4-.3.4-.4 0-.1.9-.6 1.1-.6.1 0 .3-.2.6-.5.3-.4.4-.5.3-.6-.1-.1-.1-.2.1-.5.2-.2.3-.4.4-.4.1 0 .1 0 .1-.1 0-.2 1-.2 1.6-.1.3.1.4.2.4.3 0 .2-.1.2-.3.2-.2-.1-.3 0-.2.1.1.2-.7 1.1-1 1.1-.1 0-.2.1-.2.1 0 .2-.7.6-.9.5-.1 0-.2 0-.3.1 0 .1 0 .2.1.2.2.1.2.1 0 .3-.1.2-.2.3-.1.5s.2.4.2.5c.1.1.1.6.1 1 0 .6 0 .7.2.7.1 0 .2.1.2.1 0 .1.2.2.4.2.2.1.4.2.5.2 0 .1.4 0 1-.1.3-.3.8-.4.9-.3zM76.8 15.8c1-.1 1.1.2.1.4-.6.1-.7.2-.7.3 0 .1.1.1.2.1s.1-.1.1-.1c-.1-.2.9 0 1 .2.2.3.1.5-.2.5-.2 0-.3.1-.3.2s.2.2.6.2c.3 0 .8 0 1 .2.5.2 1.6.3 2.1.1.7-.3 1.3-.5 1.8-.7.8-.2 1.6-.8 1.6-1.2 0-.2-.2-.3-.4-.4-.2-.1-.3-.2-.3-.3 0-.1 0-.1-.1-.1s-.1-.1.1-.2c.2-.2.2-.2-.2-.1-.3.1-.5 0-.5-.1-.1-.2-.6-.2-.6.1 0 .1-.1.2-.3.2h-1.1c-.6 0-.8 0-.9.2-.1.2-.1.2-.2 0-.1-.3-.4-.3-.4.1 0 .2-.1.3-.2.2-.1-.1-.2 0-.3 0-.1.2-.3.2-.2-.1 0-.2-.1-.3-.4-.6-.5-.3-.5-.3-.7-.1-.1.1-.3.2-.4.2s-.3.1-.3.2-.1.2-.1.2c-.1 0-.2.1-.4.2-.1.2-.1.2.6.2zM88.3 19.5c.1 0 .2 0 .2.1s0 .2-.1.3c-.1.1-.1.2.1.3.2.2.2.2.1 0 0-.1 0-.3.1-.3.1-.1.1-.1.1-.2s0-.2.1-.2.1-.2.1-.2c0-.1 0-.1-.1 0s-.1.1-.2 0c-.1-.2-.2-.2-.4-.1-.2 0-.2.4 0 .3z" fill="#60d66c"/><path d="M88 25.5c.2-.1.3-.1.3.1 0 .1.1.2.2.3.2 0 .1.1-.1.2s-.4.2-.4.3c0 .2.3.3.4.2.2-.2.3-.1.3.2 0 .1-.1.1-.1-.1-.1-.2-.1-.2-.1 0s.1.2.4.2c.3-.1.4-.1.3.1 0 .1-.1.2-.2.2s-.1.1 0 .3c.1.2.2.2.2.2.1-.2 1-.2.9 0 0 .1.1.3.2.4.2.3.2.8 0 .9-.1.1-.4.1-.6 0-.3 0-.5 0-.5.1s.1.1.1.1c.2-.2.1.1-.2.3l-.1.3.3-.1c.6-.1.5.4-.1.6-.7.3-.7.7.1.7.6 0 1.1.3.5.3-.3 0-.9.4-.9.7 0 .1-.2.2-.4.4s-.4.3-.4.3c.1.2.5.1.8-.1.2-.1.4-.2.6-.1.3.1.4 0 .6-.2.2-.2.3-.2 1.1-.2.5 0 .9 0 .9-.1s.2-.1.5-.1c.6 0 1.6-.4 1.6-.6 0-.1-.1-.2-.2-.2-.2 0-.3-.4 0-.5.4-.2.6-.7.5-1.1-.2-.3-.8-.5-1.1-.3-.2.2-.2.2-.1 0s.1-.3 0-.6c-.1-.2-.2-.5-.2-.5 0-.2-.4-.6-.7-.8-.1-.1-.3-.3-.3-.5-.1-.5-.5-1-.7-1-.3 0-.3-.4 0-.7.1-.1.3-.3.3-.4 0-.1.1-.3.2-.4.3-.3.1-.5-.7-.5-.4 0-.8-.1-.8-.1 0-.1 0-.1.1-.1s.3-.1.5-.3c.2-.2.3-.3.2-.3-.1 0 0-.1.2-.3.1-.2.3-.4.3-.5.1-.2-.5-.2-.7 0-.1.1-.1.2-.1.3 0 .2-.5.4-.9.3-.2-.1-.4 0-.5.3-.3.5-.7.9-.8.8-.1-.1-.2 0-.3.1-.1.1-.2.2 0 .4.1.1.2.2.1.3v.1c0 .1.1 0 .1-.1.1-.1.1-.1.2 0 0 .1-.1.2-.4.3-.2.1-.4.2-.4.3-.2.3-.1.3 0 .2zm.4-1c-.1 0-.1-.1-.1-.1 0-.1.1-.1.1-.1l.1.1c0 .1 0 .1-.1.1z" fill="#60d66c"/><path d="M84.9 30c-.5.4-.7.9-.4.9.1 0 .1.1 0 .2s0 .1.1.1.2 0 .2.1c0 .2 1 0 1.6-.4.3-.2.7-.3 1-.3.4 0 .4-.1.5-.5.1-.3.2-.8.2-1.1 0-.5.1-.6.3-.7.4-.2.4-.5.1-.9-.3-.3-1.2-.5-1.7-.4-.3.1-.9.9-.7.9.1 0 .1.1.1.1 0 .1-.3.1-.6.1-.4-.1-.6 0-.7.2-.1.2-.1.3 0 .3.1.1.1.1 0 .2-.2.3-.2.4.2.5.4 0 .4.2-.2.7zM113.9 50.5l.6.2c.1.1.3.1.8 0 .6-.1.9-.3.5-.4-.1 0-.1 0-.1.1.1.1 0 .1-.1 0s-.5-.2-.9-.2c-.3 0-.7-.1-.7-.2s-.1-.1-.2 0-.2 0-.2-.1-.1-.1-.2-.1-.1.2-.1.3c.1.3.2.4.6.4zM37.3 139.7c.2.1.2.1.1-.1-.1-.1.1-.2.5-.2.8 0 1.8-.3 2.4-.6-5.2-3.5-10.1-7.4-14.4-11.8 0 .2 0 .4.1.6.1.3.2.6.1 1.1-.1.5 0 .8.2 1.4.1.4.3.8.3.9 0 .1.1.3.2.3s.2.3.2.6v.3c3 2.9 6.8 5.6 10.5 7.9 0-.1-.1-.2-.2-.4-.2-.1-.2-.1 0 0zM52.5 5.3c-.1-.1 0-.1.3 0 .2.1.4.1.5.1.3-.2 2.1-.2 3 .1 1 .3 1.3.4.9.4-.3 0-.1.4.2.5.3.1.3.1.1.3-.2.2-.2.2 0 .3.2.1.2.1-.1.1-.2 0-.3.1-.2.2 0 .1.2.1.3.1.1-.1.1 0-.1.2l-.3.3.3-.1c.3-.1.3-.1.1.2-.2.2-.2.3-.1.4.2.1.1.1-.1.1-.3 0-.4.2-.1.3.1 0 0 .2-.2.4-.3.3-.3.4-.2.6.1.2.3.2.6.2s.5 0 .5.1 0 .1-.1 0c-.1 0-.2 0-.2.1s.1.2.3.2c.2 0 .2-.1.2-.2s0-.2.1-.2.1.1.1.2.1.2.3.2c.2 0 .3.1.3.3 0 .3-.1.4-.3.1-.1-.2-1.5-.2-1.6 0-.1.1 0 .2.1.2s0 .1-.2 0h-.3c0 .1 0 .3-.2.5l-.2.3.4.2c.4.2.5.2 1.1 0 .8-.2.9-.4.4-.7-.2-.1-.3-.2-.3-.2 0-.1.2 0 .2.1.1.1.3.2.4.2.4 0 .4.4 0 1-.2.3-.3.4-.8.3-.6-.1-.6 0-.9.4l-.4.4c-.1 0-.7.7-.7.9 0 .1.1.2.2.2.2 0 .2 0-.1.1-.3.1-.6.6-.4.7.1 0 .1.2 0 .4s0 .3.2.2c.2-.1.2 0 .1.1v.2c.1 0 0 .2-.1.5-.1.5-.1.5 0 .7.1.1.2.1.1.2-.2.1 0 .8.3.8.1 0 .1.2.1.4-.1.2 0 .4 0 .4.1 0 .2.2.3.5.1.3.2.6.3.6.1 0 .2.2.2.4 0 .3.2.3.5.2.3-.2 1.4.2 1.4.5 0 .1.1.2.2.3.1 0 .3.1.5.2.4.2.9 0 1.1-.4.1-.2.2-.3.3-.3.1 0 .2-.1.2-.3 0-.1.3-.5.5-.7.2-.2.5-.6.5-.8.1-.2.2-.4.4-.5.2-.1.5-.3.7-.5.2-.2.4-.4.6-.4.1 0 .2-.2.2-.3 0-.1.1-.3.3-.5.2-.2.3-.4.2-.6v-.2c.2.1.9-.4.8-.5 0-.1.2-.1.5-.1.4 0 .6 0 .5-.2-.1-.1-.1-.1.1 0 .3.2.9.4.9.2 0-.1.1-.1.2-.1s.2-.1.2-.2.1-.1.1-.1c.1.1.2 0 .3 0s.5-.2.8-.4c.4-.2.9-.5 1.3-.9.4-.3.8-.6 1-.7.2 0 .4-.2.5-.3.1-.2.1-.2.2 0 .1.1.3.2.7.1 1.8-.3 3.7-.8 4.2-1.1.3-.2.6-.3.6-.3.1 0 .5-.2 1-.4l.9-.4-.7-.1c-1-.1-1.9-.3-1.6-.3.2 0 .3-.1.3-.3 0-.2 0-.3.3-.3s.4.1.4.2c0 .2.1.3.1.3.1.1 1.4.3 1.6.2.1-.1.2-.4.2-.7 0-.6 0-.6-.4-.8-.4-.2-.4-.2-.1-.2.4.1.8-.2.6-.4-.1-.1-.1-.1.1-.1s.2-.1.2-.3c-.1-.3.2-.4.8-.4.5 0 .8-.5.4-.6-.2 0-.1-.1.1-.1h.4c.2 0 1.1-.4 1.3-.7.1-.1.2-.2.3-.1h.3c.1-.1 0-.1-.1-.1s-.2-.1-.1-.1c.1-.1-.1-.1-.3-.1-.4 0-.6.3-.5.6.1.1-.5.2-.6 0-.1 0 0-.2.2-.3.4-.3.3-1-.1-1.3-.4-.3-.2-.4.4-.3.3 0 .4.1.4.3-.4-.1-.3-.1-.3-.1.1-.1.1 0 .1.2-.1.4.1.3.3-.2.1-.2.2-.4.3-.4s.2-.1.1-.2c0-.2-.2-.2-.5-.3-.3 0-.5-.1-.6-.1-.1-.1 0-.1.2 0h.4c.1-.1.1-.1-.2-.2-.2-.1-.4-.2-.4-.3-.1-.1-.1-.1-.3 0-.3.3-.4 0-.1-.3.2-.2.4-.3.8-.2.4.1.5 0 .4-.2-.1-.2 0-.2.1-.2.2 0 .2 0 0-.1-.3-.1-.1-.2.7-.3.3 0 .6-.1.6-.2s.3-.2.5-.2.4-.1.4-.2c-2.9-.3-5.8-.5-8.8-.5-8.9 0-17.5 1.6-25.5 4.4.1 0 .2.1.3.1.8-.2 1-.2.9-.3zm3.4 11.6c-.1-.1-.1-.1 0 0 .2 0 .3.1.2.1 0 .1-.1 0-.2-.1zm23.8-8.6s-.2.1-.2 0c-.1 0-.1-.1.1-.1.1 0 .2 0 .1.1zm-.3-.4c.2 0 .3 0 .2.1h-.4s0-.1.2-.1zm-.7-.4l.1.1c0 .1 0 .1-.1.1s-.1-.1-.1-.1c0-.1 0-.1.1-.1zm-.5.4c.5 0 .5 0 .3.1-.4.2-.4.5 0 .6.3.1.3.2-.1.1-.2 0-.3-.2-.3-.3 0-.1-.1-.3-.2-.4-.2-.1-.1-.1.3-.1zM29.9 17.8c.4 0 .5 0 .4.2-.1.4.2.4.9 0 .3-.2.6-.3.7-.3.1 0 .3-.1.4-.3.3-.3.8-.2.7.1-.1.3.9.4 1.4.2.4-.1.4-.2.3-.4-.1-.1-.2-.2-.3-.2s-.2-.1-.2-.2c-.1-.3-.5-.7-1.1-1-.2-.1-.2-.2-.1-.5v-.2c-.1 0-.1.1-.2.1v.1c-1 .8-2.1 1.5-3.1 2.4h.2zM3.5 74.5c.2.2.3.4.4.6 1-.5 2.3-1.1 3.9-1.8.2-.2.4-.6.4-1 0-.3.1-.6.2-.7.1-.1.1-.2.1-.2s.1-.2.2-.3c.2-.2.3-.5.3-.6 0-.1.1-.4.2-.6.1-.2.2-.5.2-.6 0-.1.1-.3.1-.3.1-.1.1-.2.1-.3 0-.1.1-.3.2-.4.2-.2.2-.1.1.1-.1.3.1.3.3-.1.1-.2.1-.3 0-.3s-.1-.1 0-.3c.1-.2.1-.4.1-.6-.1-.3-.1-.3-.9-.3-.4 0-1.2.1-1.6.3-.7.2-.9.3-1 .6-.1.2-.1.4-.1.5 0 .1-.1.5-.3.9-.3.7-.9 1.2-1.6 1.3-.7.1-1.6.3-1.9.5-.2.1-.3.1-.6-.2-.1-.1-.2-.2-.3-.2-.1 1-.1 2-.2 3.1h.1c.5-.3 1.1.2 1.6.9zM39.3 11.9c-.4.1-.7.5-.4.5.1 0 .1.1-.1.3-.2.2-.3.3-.2.4.1.1.1 0 .2-.1 0-.1.1-.2.2-.2.2 0 .2-.2.2-.5 0-.1.1-.1.1-.1.2 0 1.1-.7 1.1-.9 0-.1-.1-.1-.2 0-.5.2-.7.2-.7.1s.1-.2.3-.2c.2 0 .4-.1.4-.3.1-.2.1-.2.1-.1s.1.2.2.2.2.1.1.2c-.1.2 0 .2.1.1s.2 0 .2 0c0 .1.2.2.4.3l.3.2h-.4c-.2 0-.3-.1-.3-.1.1-.2-.2-.3-.4-.2-.1.1-.1.2 0 .4.1.1.1.2 0 .3-.1.1 0 .1.4.1.3-.1.4 0 .4.1 0 .2-.1.2-.5.2-.8 0-1.8.7-1.5 1.1.2.3 1.8-.1 1.8-.5 0-.1.1-.2.2-.3.1-.1.2-.1.2.1s.1.3.5.3c.3 0 .5 0 .5-.2 0-.1-.1-.2-.3-.2-.2 0-.3-.1-.3-.2-.1-.2 0-.2.1 0 .2.1.2.1.3 0 .1-.1.1-.1.1 0s.1.2.3.2c.2 0 .2.1.2.3 0 .2-.1.4-.1.6 0 .1-.1.2-.2.2s-.3.1-.4.2c-.1.1-.5.3-.8.4-.8.3-.9.4-.7.7.2.2.2.4-.1.4-.1 0-.4.1-.7.1-.3.1-.7.1-1.1 0-.5-.1-.7-.1-1.1.1-.7.4-.9.7-.8.9.2.3.7.3 1.3.2.3-.1.7-.2 1-.1h.7c.2 0 .3.1.2.2 0 .1 0 .1.1.1s.2.1.2.2.1.4.2.6c.2.2.3.4.3.6 0 .3.2.4.6.2.3-.1.4-.1.7.1.2.2.5.3.6.3s.6.1.9.3c.3.2.6.2.6.2s.1.1.3.2c.3.3.6.2.5-.3-.1-.3-.4-.4-.4-.1 0 .1-.1.1-.2.1s-.2-.2-.1-.3c0-.2-.1-.4-.3-.6-.2-.2-.3-.4-.3-.4 0-.1-.1-.2-.3-.2-.1 0-.3-.2-.3-.3 0-.2 0-.2.3 0 .1.1.3.2.3.2 0-.1.2 0 .3.2.2.2.2.2.4.1.1-.1.2-.1.1 0s0 .2.2.2.3.2.4.4c.1.3.4.4.5.1 0-.1 0-.2-.1-.3-.1-.1-.1-.1 0-.1s.2-.1.2-.3c0-.2.1-.2.2-.2s.3 0 .4-.2c.2-.2.2-.3 0-.5-.1-.2-.1-.4-.1-.6.1-.3 0-.5-.4-.5-.2 0-.4-.2-.4-.7 0-.1 0-.2.1-.2.2 0 .2-.2 0-.4-.1-.2-.1-.2 0-.1s.2 0 .3 0c.2-.2.8.3.8.7.1.3.3.7.4.6 0 0 .2 0 .3.1.3.2.6 0 .7-.3.1-.2.2-.3.6-.2.3 0 .5 0 .5-.1 0-.2.3-.6.5-.6.1 0 .3-.1.5-.3l.3-.2-.5-.4c-.2-.2-.4-.2-.5-.2-.1 0-.1 0-.1-.1.1-.1 0-.2-.1-.2s-.3-.2-.5-.4-.4-.3-.6-.3c-.2 0-.3 0-.4-.1 0-.1-.3-.2-.5-.3-.2-.1-.4-.2-.4-.3 0-.2.6-.5.7-.4.2.2.4-.1.2-.3-.1-.2-.1-.2 0-.3.4-.2-.1-.9-.8-1.1-.3-.1-.5-.1-.6-.1-.1 0-.1 0-.1-.2 0-.1-.1-.2-.1-.2-.1 0-.1 0-.2-.2s-.2-.3-.6-.3c-.3 0-.6.1-.7.2-.2.2-.2.1 0-.1.1-.2.1-.2 0-.2s-.1-.1-.1-.1c0-.1 0-.1-.1-.1s-.2-.1-.2-.2-.1-.2-.3-.3h-.1c-1.9.9-3.7 1.9-5.5 3 .2.1.4.1.6.1.6 0 .8.2.3.4zm1.8.3c0 .1-.1.1-.2.1s-.1-.1-.1-.1c0-.1.1-.1.2-.1s.1 0 .1.1zm-2 4.6c-.1 0-.2-.1-.1-.2.1-.2.3-.2.3.1-.1 0-.1.1-.2.1zm1.5 1.1c-.1 0-.1-.1-.1-.1 0-.1.1-.1.2-.1s.2.1.1.1c0 0-.1.1-.2.1zm4 1.9c.1 0 .2 0 .2.1-.1.1-.2.1-.2-.1-.2.1-.2 0 0 0zm5.1-5.5c.1 0 .2.1.3.1.1.1 0 .1-.2.1-.3-.1-.3-.2-.1-.2zm-2.4-2.5c-.2 0-.4-.1-.4-.1s.2-.1.4-.1.4.1.4.1c.1.1-.1.1-.4.1zm-.5-.8s-.1.1-.3.1c-.1 0-.2 0-.2-.1.1 0 .5-.1.5 0zm-.1.2c.3-.1.6-.2.6-.3 0-.2 0-.3.1-.3v.2c-.1.1 0 .1.1.1.1-.1.3 0 .3.1.1.1-.1.2-.7.3-1 .2-1.2.2-.4-.1zm-1.1-.9c.4-.2.6-.2.4 0-.1.1-.3.1-.4.1-.2 0-.2 0 0-.1zM44 9.2c.3-.2.3-.2.3 0 0 .1-.2.1-.3.1-.3 0-.2 0 0-.1zm-1 5.5c.2-.4.5-.7.5-.4 0 .1.2.2.3.2.4.1.3.3-.4.4-.4 0-.5 0-.4-.2zm-1.1-1.5c.2 0 .3 0 .2.1h-.4c-.2-.1-.1-.1.2-.1zm-.1-.9s-.2.1-.2 0c-.1 0-.1-.1.1-.1.1 0 .2 0 .1.1z" fill="#60d66c"/><path d="M33.2 15.4c-.1.1 0 .1.5.2.1 0 .2-.1.2-.3 0-.8 0-.8.3-.5.2.3.3.3.3.1.1-.1.2-.2.3-.2s.4-.1.6-.2c.2-.1.4-.2.5-.2.1 0 .3-.2.5-.3.2-.3.3-.4.2-.5-.2-.2.1-.6.7-.8.2-.1.4-.3.5-.5v-.1c-.1.1-.3.2-.4.2v.1c0 .1-.1.1-.1.1s-.1 0-.1-.1c-1.4.9-2.7 1.7-4 2.7-.1.1 0 .3 0 .3zM17.4 57.7c-.4-1.7.3-3.3 1.9-4.1.2-.1.6-.5.9-.8.3-.4.6-.6.8-.6.2 0 .4-.1.4-.1.2-.3 1.1-.8 1.4-.8.4 0 .7-.4.5-.5-.1-.1 0-.2.4-.4.5-.3.5-.3.4 0-.1.2-.2.3-.3.3-.1 0-.2 0-.1.1.1 0 .3 0 .4-.1.2-.1.3-.3.3-1.1 0-.5-.1-1-.1-1.1-.1-.1-.1-.3 0-.6.1-.2.2-.5.2-.7.1-.5.3-.5.2-.1 0 .2-.1.5-.2.6-.1.1-.2.3-.2.4 0 .3 0 .2.3-.1.2-.2.3-.5.2-.5-.1-.1 0-.1.1 0s.3-.1.5-.3c.3-.3.3-.5.3-.8 0-.2 0-.5.1-.5.1-.1.1 0 .1.1 0 .3.1.3.7-.3.3-.3.6-.7.7-1 .2-.4.3-.5.9-.6.9-.2 1.6-.5 1.2-.6-.1 0 0-.1.4-.2.3-.1.7-.2.8-.1.1 0 .3 0 .3-.1.1-.1.2-.2.3-.2.3 0 .4-.4.3-.6-.1-.1-.1-.1-.1.1 0 .3-.2.3-.4-.1-.1-.2-.1-.3.1-.5.1-.1.2-.2.2-.4 0-.4.8-1 1.9-1.4.6-.2 1.2-.5 1.3-.6.2-.1.4-.2.7-.2.4 0 .6-.2.2-.3-.2 0 .3-.2.7-.3.2 0 .5-.1.7-.2.2-.1.4-.1.4 0s-.3.3-.8.6c-.7.4-.9.5-.9.9 0 .2 0 .5.1.6.2.2.6.3.6.1 0-.1.1-.1.3-.1s.3-.1.3-.1c0-.2 1-.9 1.1-.8h.3c.3-.2 2.2-.9 2.2-.8l.2-.2c.1-.2.3-.3.4-.3.3 0 .9-.4.9-.7 0-.1-.1-.2-.2-.2-.2 0-.2-.1 0-.4.1-.2.1-.3 0-.4-.1-.1-.3 0-.9.7-.4.5-.8.8-.8.7s-.1-.1-.3 0c-.3.1-1.4-.1-1.3-.3.1-.2.7-.1.7 0s.1.1.3.1.3-.1.3-.1c0-.1.2-.2.4-.3.3-.2.3-.2-.4-.2-.8 0-1-.1-.9-.5.1-.2 0-.2-.1-.2s-.2.1-.2.2-.1.1-.2.1c-.2-.1-.2.1 0 .4.3.3.2.3-.1.3-.3-.1-.4-.5-.3-.9 0-.2.2-.5.5-.7l.4-.5-.3.1c-.5.1-.4 0 .2-.3 1-.4.7-1.2-.4-1.2-.8 0-2.4.6-3.2 1.1-.7.5-.8.4-.3-.1s1.4-1 1.8-1c.1 0 .4-.2.6-.4.2-.2.5-.5.7-.6.2-.1 1.4-.1 3-.1s2.7 0 2.7-.1.2-.2.4-.2c.2-.1.4-.4.6-.6.4-.4 1.1-.8 1.6-.8h.4l-.6.8c-.9 1-1.5 1.8-1.5 2 0 .1-.1.2-.2.2s-.2.1-.3.2c-.1.1-.1.2-.2.1s-.5.3-.5.4c0 0 .1.1.3 0 .2 0 0 .1-.3.3-.9.6-.7.7 1 .8 3.2.2 2.9.1 2.7.4-.2.2-.2.5 0 .5.1 0 .1-.1.1-.1 0-.1 0-.2.1-.2.1-.1.1 0 .1 0-.1.4 0 .6.3.5.5-.1 1.2-1.4.8-1.4-.1 0-.1.1-.1.1 0 .1-.1.1-.1.1-.1 0-.1-.1-.1-.2s.1-.2.1-.1c0 0 .2 0 .2-.1.1-.2.1-.2-.1-.2-.1 0-.3.1-.4.3-.1.2-.3.3-.3.3s0-.2.2-.3c.2-.2.2-.3.1-.4-.1 0 0-.1.2-.1.3 0 .4 0 .4-.2s0-.2-.2-.2c-.3.1-.4-.3-.1-.4.3-.1.2-.3-.1-.5-.2-.1-.2-.1-.1-.1s.1-.1.1-.2c-.1-.1-.1-.1-.3.1-.1.2-.2.2-.2.1s-.1-.2-.2-.2-.2 0-.2.1-.2.1-.4.1c-.3 0-.4 0-.3-.2 0-.1.1-.2.2-.2.3 0 .2-.2-.2-.3l-.5-.3.4-.4c.3-.3.5-.4.5-.3.1.2.3-.1.2-.3 0-.1 0-.2.1-.2s.2-.1.2-.2c.1-.2 0-.2-.3-.2-.2 0-.3 0-.2.1.1.1 0 .1-.2.1h-.4s.3-.2.6-.3c.5-.3.6-.4.8-1.1.2-.9.2-1.1-.2-1.2-.4-.1-.7-.6-.4-.8.3-.2-.2-.6-.6-.5-.2 0-.4 0-.3-.1 0-.2-.6-.4-.9-.3-.1 0-.2 0-.1-.1.2-.2.2-.5-.1-.8-.3-.3-.3-.3-.1-.4.2-.1.3-.7.1-.8-.1 0 0-.2.1-.4.2-.3.2-.3-.1-.5-.2-.1-.3-.3-.3-.6s-.1-.7-.2-.9c-.1-.2-.2-.7-.1-1v-.6c-.2 0-.4.4-.4.6 0 .1 0 .1-.1.1s-.5.3-.9.7c-.4.4-.8.8-.9.8-.1 0-.4.1-.7.3-.5.2-.6.2-.7.1-.5-.4-.7-.7-.7-.9 0-.3.4-1.2.5-1.3.1-.1.1-.2.1-.2V21c.1 0 .1 0 .1-.1s-.2-.2-.4-.2-.5-.1-.7-.1c-.3-.1-.3-.1-.1-.3.1-.2.1-.2 0-.3-.4-.2-.9-.6-1.1-.9-.1-.1-.5-.2-.5-.2v.3s.2.1.1.2c-.2.2-.4.1-1.8-.2-.7-.1-.7-.1-1 .2-.2.2-.3.5-.3.6 0 .4-.3.8-.8 1-.5.2-.5.4-.1.2.3-.1.3-.1.2.2-.1.2-.1.4-.1.5 0 .1 0 .2-.1.2s-.3.2-.6.5-.6.5-.7.5c-.1 0-.5.4-.5.5l.1.1c.2 0 .8.6.8.9 0 .3-.5 1.4-.7 1.7-.5.5-1.9 1.2-2.7 1.4l-.8.1.1.6c0 .4 0 .6-.1.6s-.1.2-.1.3c0 .2-.1.4-.1.4-.1 0-.1.3-.1.5 0 .3-.2.6-.4.8-.2-.2-.3 0-.3.1.1.1 0 .1-.1.1s-.1-.1-.2-.2c0-.1-.2-.1-.4.2-.3.3-.6.3-.6-.1 0-.1-.1-.3-.2-.4-.1-.1-.2-.3-.2-.4 0-.1-.1-.3-.1-.4-.1-.2 0-.2.3-.1.7.2.7.2.7-.1 0-.3-.1-.3-.4-.3-.3 0-.4 0-.3-.2 0-.2.1-.3.2-.3s.1-.2.1-.4.1-.3.1-.3c.2 0 .5-.8.4-.9-.1 0-.6-.1-1.1-.2-.6 0-1.1-.2-1.2-.3-.1-.1-.4-.3-.7-.4-.3-.1-.5-.3-.5-.3 0-.2-.4-.7-.8-.8-.2-.1-.5-.2-.7-.3-.1 0-.1-.1-.2-.1-4.3 4.4-8 9.5-11.1 15.1l6.5 18.3c0-.2-.1-.4-.1-.6zm21.5-20.5s-.1.1-.3.1c-.1 0-.2-.1-.2-.1.1-.1.5-.1.5 0zm-1.6-2c.1 0 .3.1.3.1.1.2-.1.2-.3 0-.2-.1-.2-.1 0-.1zm7.3-6.4c.2-.2.6-.3.6-.2l-.4.2c-.4.2-.4.2-.2 0zM21.8 42.4c-1.2.5-1.7.6-2 .5-.3-.2-.3-.4 0-.4.1 0 .3.1.3.2s0 .1.1 0 .4-.4.8-.6c.6-.3.8-.4 1.3-.3.4.1.5 0 .4-.1-.1-.1-.1-.2.3-.2.2 0 .5-.1.6-.1h.2c-.1.1-1.1.6-2 1zm-1.9-.2c0-.1.2-.1.3-.1s.3.1.2.1c0 .1-.2.1-.3.1-.1 0-.2-.1-.2-.1zm4.1 7.3c0 .1 0 .1-.1.1-.2-.1-.3-.2-.1-.2.1 0 .2 0 .2.1zm-.2-2.3c-.1-.1-.1-.2 0-.2s.2.1.2.2c.2.2 0 .2-.2 0zm.1-6.8c.3-.2.8-.2 1.3-.2s.8 0 .8-.1.1-.1.3-.1.3 0 .3.1c0 .5-.8.8-1.6.7-.4-.1-.9 0-1.1 0-.6.1-.6-.1 0-.4zm-1.4-2.5c0 .1-.1.1-.2.1s-.1-.1-.1-.1c0-.1.1-.1.2-.1s.1 0 .1.1zm-.1-.4c.1 0-.1.1-.5.1-.3 0-.6 0-.6-.1s.8-.1 1.1 0zm-.2.6c.4.2.5.2.7-.1.3-.4.7-.4.8.1.3 1-.3 1.5-.7.7-.3-.5-.5-.6-.4-.1.1.3 0 .5-.3.7-.2.2-.4.5-.5.7-.1.5-.6.9-.8.9 0 0-.1-.3 0-.6 0-.5 0-.6-.2-.5-.1 0-.3.1-.5.2-.1.1-.2.2-.3.2-.1 0 .2-.3.5-.6s.5-.7.5-.7 0-.2.1-.2c.2-.2.1-.3-.2-.5-.2-.1-.3-.2-.3-.4s.1-.2.6-.1c.3 0 .8.2 1 .3zm-6.5-1.4c.2-.2.2-.2-.3-.2-.3 0-.5.1-.5 0s1.4-.9 1.9-1c.3-.1.6-.2.7-.3 0-.1.1-.1.2-.1s0 .1-.1.2-.2.2-.1.2c.3 0 .8-.3.8-.4 0-.1-.1-.1-.2-.1s-.2 0-.3-.1c-.1-.1 0-.1 0-.1.1 0 .4 0 .8-.2.7-.3 1.1-.3 1.4-.2.1 0 .2.2.1.4-.1.4.3.7.7.5.2-.1.2-.1.1.1-.1.1-.1.2-.1.3.1 0 0 .2 0 .3-.1.3-.2.4-.2.7 0 .1-.1.2-.2.2s-.1-.1-.1-.2c.1-.2 0-.2-.5-.1-.3 0-.7.1-.8.2-.3.2-.8 0-.9-.2 0-.1-.2-.2-.3-.2-.2 0-.1-.1.2-.3.5-.3.4-.5-.1-.3-.2.1-.3.2-.2.2s0 .1-.1.1c-.1-.1-.3 0-.6.1-.2.1-.6.3-.8.3-.2.1-.5.2-.7.2 0 .2 0 .2.2 0zm.2 5.7c0-.8.5-2 1.6-3.3.5-.7.6-1 .2-.6-.1.1-.1 0 .1-.2s.4-.4.5-.3c.1 0 .3 0 .4-.1.3-.2 1.3-.4 1.3-.3 0 .1-.8.9-1 1-.4.1-.6.2-1 .8-.5.7-.7 1.2-.7 1.7 0 .2-.2.6-.6 1-.4.7-.8.8-.8.3z" fill="#60d66c"/><path d="M6.4 57.1c.1.1.4.2.8.2s.6.1.6.2.1.2.2.2c.5.1.9 0 1-.1.1-.2.5-.2.4-.1v.3c.1.2.1.2.3 0 .3-.2.3-.2 0-.5-.3-.2-.3-.2 0-.5.1-.1.3-.3.3-.4 0-.1.4-.2.9-.2L9 44.2l2.1-4.3C7.9 45.7 5.5 51.7 4 58c1.5-1 2.1-1.2 2.4-.9zm2.7-.8l.1.1c0 .1 0 .1-.1.1s-.2 0-.1-.1c0-.1.1-.1.1-.1zM20.7 67.5zM20.8 67.7l.1.3c.2-.1.3-.1.5-.2-.1-.1-.3-.1-.4-.1-.1.1-.1.1-.2 0zM12.3 66.6c.1 0 .1 0 0 0v-.4c-.4.1-.3.3 0 .4zM12.3 65.9z" fill="#60d66c"/><path d="M141.8 71l1.4-8.5.3-1.7 2.5-15 .1-.6-2.2-4.3-.1.3-5.6 15.6-.9 2.5-3 8.4c-2-.8-4.1-1.5-6.1-2.2-1-.3-2-.6-2.9-.9-15-4.7-29.6-6.6-43.2-6.8-24.7-.3-46.1 5-60.6 10-.2.1-.3.1-.5.2l-.1-.3-.1-.3-3.2-9.2L11 40v.1l-2.1 4.3 1.9 12 1.5 9.5v.4l.1.4.7 4.4c-2 .8-3.8 1.6-5.4 2.3-1.6.7-2.9 1.3-3.9 1.8l-2.2 1.1c-.5 4.1 0 9.2 1.6 14.7 3.4 11.5 11.4 24.9 22.7 36.1 4.3 4.3 9.2 8.3 14.4 11.8 11.3 7.5 24.6 12.4 39 12.5h.5c2.8 0 5.6-.3 8.2-.7 19.6-3.6 34.7-19.4 45.4-35.6.9-1.3 1.7-2.6 2.5-3.9.5-.9 1.1-1.7 1.6-2.6 9.9-16.9 14.9-32.3 14.9-32.3-2.8-1.5-5.6-2.9-8.3-4.2-.8-.4-1.5-.8-2.3-1.1z" fill="#eacce7"/><path d="M56.2 52c4.1 0 7.5-3.4 7.5-7.5S60.3 37 56.2 37s-7.5 3.4-7.5 7.5S52 52 56.2 52zm-7.4-7.5c0-1.5 1.3-2.8 2.8-2.8 1.5 0 2.8 1.3 2.8 2.8s-1.3 2.8-2.8 2.8c-1.5 0-2.8-1.2-2.8-2.8z" fill="#282828"/><circle cx="51.6" cy="44.5" r="2.8" fill="#fff"/><path d="M98.2 52c1.5 0 2.8-.4 4-1.1 1-.7 1.9-1.6 2.5-2.6.2-.4.4-.8.6-1.3.3-.7.4-1.5.4-2.3v-.1c0-.8-.1-1.6-.4-2.4-.4-1.2-1.1-2.2-1.9-3-1.3-1.3-3.2-2.1-5.2-2.1-4.1 0-7.5 3.4-7.5 7.5 0 1.1.3 2.2.7 3.2.3.6.6 1.1 1 1.6 1.4 1.5 3.4 2.6 5.8 2.6zm-4.6-10.3c1.5 0 2.8 1.3 2.8 2.8s-1.3 2.8-2.8 2.8c-1.5 0-2.8-1.3-2.8-2.8s1.3-2.8 2.8-2.8z" fill="#282828"/><circle cx="93.6" cy="44.5" r="2.8" fill="#fff"/><g fill="none" stroke="#333" stroke-width="2" stroke-miterlimit="10"><path d="M96.4 28.3s9.2 7 14.2 7.3M59.7 27.3s-9.2 7-14.2 7.3"/></g></svg>